<svg width="1152" height="1084" fill="none" xmlns="http://www.w3.org/2000/svg"><path fill-rule="evenodd" clip-rule="evenodd" d="M1094 1084c149.67 0 271-121.331 271-271 0-149.669-121.33-271-271-271-149.669 0-271 121.331-271 271 0 149.669 121.331 271 271 271z" fill="#DAEBFF"/><path fill-rule="evenodd" clip-rule="evenodd" d="M271 542c149.669 0 271-121.331 271-271C542 121.331 420.669 0 271 0 121.331 0 0 121.331 0 271c0 149.669 121.331 271 271 271z" fill="#E8F3FF"/><path fill-rule="evenodd" clip-rule="evenodd" d="M680.5 542c14.083 0 25.5-11.193 25.5-25s-11.417-25-25.5-25-25.5 11.193-25.5 25 11.417 25 25.5 25z" fill="url(#paint0_linear)"/><defs><linearGradient id="paint0_linear" x1="655" y1="492" x2="655" y2="542" gradientUnits="userSpaceOnUse"><stop stop-color="#FDC830"/><stop offset="1" stop-color="#F37335"/></linearGradient></defs></svg>