<svg width="769" height="766" fill="none" xmlns="http://www.w3.org/2000/svg"><path d="M398.5 588.614c-118.153 0-213.936-92.056-213.936-205.614S280.347 177.386 398.5 177.386 612.435 269.442 612.435 383 516.653 588.614 398.5 588.614z" fill="#DEFAE5"/><path d="M125.306 548.683h256.959c4.87 0 8.855-3.83 8.855-8.511V365.694c0-4.681-3.985-8.511-8.855-8.511H125.306c-4.871 0-8.856 3.83-8.856 8.511v174.478c0 4.681 3.985 8.511 8.856 8.511z" stroke="#17005E" stroke-width="2.214" stroke-miterlimit="10" stroke-linecap="round" stroke-linejoin="round"/><path d="M316.734 506.766l54.978-22.626 16.014-9.433 16.309-8.936c1.328-.71 1.476-2.554.221-3.476l-1.845-1.347c-1.697-1.277-4.058-1.49-5.977-.568l-13.136 6.242-21.179 1.347-77.782 14.327 10.996 17.732c4.354 7.092 13.505 10 21.401 6.738z" fill="#E51A8E" stroke="#17005E" stroke-width="1.107" stroke-miterlimit="10" stroke-linecap="round" stroke-linejoin="round"/><path d="M328.541 501.872l-11.807 4.894c-7.896 3.262-17.047.354-21.401-6.667l-10.996-17.732 34.168-6.241 10.036 25.746z" fill="#F48914" stroke="#17005E" stroke-width="1.107" stroke-miterlimit="10" stroke-linecap="round" stroke-linejoin="round"/><path d="M221.979 480.381l12.103 32.555c.959 2.483 3.764 3.83 6.346 2.908l214.452-73.621c2.583-.922 3.985-3.617 3.026-6.099l-12.103-32.555c-.959-2.483-3.763-3.83-6.346-2.908l-214.452 73.621c-2.583.922-3.985 3.617-3.026 6.099z" fill="#D2A2F5" stroke="#17005E" stroke-width="1.107" stroke-miterlimit="10" stroke-linecap="round" stroke-linejoin="round"/><path d="M221.979 480.381l.886 2.412 223.824-76.813-.886-2.411c-.959-2.483-3.763-3.83-6.346-2.908l-214.452 73.621c-2.583.922-3.985 3.617-3.026 6.099z" fill="#D2A2F5" stroke="#17005E" stroke-width="1.107" stroke-miterlimit="10" stroke-linecap="round" stroke-linejoin="round"/><path d="M385.217 465.913l-3.395-9.221m-5.978 12.483l-3.468-9.22m-5.977 12.412l-3.395-9.221m-5.978 12.483l-3.468-9.22m-5.977 12.412l-3.395-9.22m-5.978 12.483l-3.468-9.221m-5.978 12.412l-3.394-9.22m125.675-32.768l-3.395-9.22m-5.977 12.483l-3.469-9.221m-5.977 12.483l-3.395-9.291m-5.977 12.483l-3.469-9.22m-5.977 12.483l-3.395-9.292m-5.977 12.483l-3.469-9.22m-5.903 12.483l-3.469-9.22m-71.804 35.037l-3.394-9.22m-5.978 12.482l-3.468-9.291m-5.978 12.483l-3.394-9.22m-5.978 12.483l-3.468-9.292m-5.978 12.483l-3.394-9.22m-5.978 12.483l-3.468-9.22m-5.978 12.412l-3.395-9.221m-5.977 12.483l-3.395-9.22m-5.977 12.412l-3.469-9.22" stroke="#17005E" stroke-width="1.107" stroke-miterlimit="10" stroke-linecap="round" stroke-linejoin="round"/><path d="M160.507 480.239l24.796-51.563c5.313-11.064 16.899-18.228 29.592-18.228h53.797c7.823 0 15.202 3.121 20.516 8.653l13.873 14.54c11.365 11.845 7.454 30.924-7.748 37.733l-4.797 2.198 5.24 74.331H183.384l2.878-36.953-17.416-8.227c-8.708-4.043-12.398-14.043-8.339-22.484z" fill="#F48914" stroke="#17005E" stroke-width="1.107" stroke-miterlimit="10" stroke-linecap="round" stroke-linejoin="round"/><path d="M199.693 484.637l20.441-41.776-1.549 37.804-18.892 3.972z" fill="#17005E" stroke="#17005E" stroke-width="1.107" stroke-miterlimit="10" stroke-linecap="round" stroke-linejoin="round"/><path d="M383.15 477.119l5.83-12.341-1.623-12.696c-.148-1.064-1.328-1.56-2.288-1.064l-2.288 1.348a6.15 6.15 0 00-3.025 4.61l-.96 9.858-5.239 6.384" fill="#E51A8E"/><path d="M383.15 477.119l5.83-12.341-1.623-12.696c-.148-1.064-1.328-1.56-2.288-1.064l-2.288 1.348a6.15 6.15 0 00-3.025 4.61l-.96 9.858-5.239 6.384" stroke="#17005E" stroke-width="1.107" stroke-miterlimit="10" stroke-linecap="round" stroke-linejoin="round"/><path d="M376.361 478.395l.664-9.716-4.132-8.37c-.591-1.276-2.436-1.418-3.247-.283l-1.845 2.411c-1.181 1.56-1.476 3.546-.738 5.32l1.623 3.971-3.985 10.214" fill="#E51A8E"/><path d="M376.361 478.395l.664-9.716-4.132-8.37c-.591-1.276-2.436-1.418-3.247-.283l-1.845 2.411c-1.181 1.56-1.476 3.546-.738 5.32l1.623 3.971-3.985 10.214" stroke="#17005E" stroke-width="1.107" stroke-miterlimit="10" stroke-linecap="round" stroke-linejoin="round"/><path d="M199.693 484.637l53.133 32.91 19.999 2.34c2.509.284 4.797 1.631 6.199 3.617l8.117 11.207a11.717 11.717 0 012.141 5.957l.369 7.802c.073 1.206-1.034 2.199-2.288 1.986-2.657-.354-4.723-2.411-4.944-5.036l-.517-5.957-4.723-4.256-11.069 10.001-3.1.709a12.197 12.197 0 01-7.453-.638l-6.421-2.625c-2.951-1.205-5.239-3.688-6.051-6.667l-.369-1.347-56.38-23.69 13.357-26.313z" fill="#E51A8E" stroke="#17005E" stroke-width="1.107" stroke-miterlimit="10" stroke-linecap="round" stroke-linejoin="round"/><path d="M270.759 538.541l6.567 6.454.296 2.411c.295 2.554 2.066 4.752 4.649 5.603l1.55.497c1.106.355 2.213-.497 2.14-1.56l-.591-8.724c-.074-1.561-.812-3.05-1.992-4.114l-5.83-5.39" fill="#E51A8E"/><path d="M270.759 538.541l6.567 6.454.296 2.411c.295 2.554 2.066 4.752 4.649 5.603l1.55.497c1.106.355 2.213-.497 2.14-1.56l-.591-8.724c-.074-1.561-.812-3.05-1.992-4.114l-5.83-5.39" stroke="#17005E" stroke-width="1.107" stroke-miterlimit="10" stroke-linecap="round" stroke-linejoin="round"/><path d="M265.298 544.144l6.346 4.823.295 4.255c.148 2.412 1.919 4.398 4.281 5.107 1.623.425 3.247-.709 3.173-2.341l-.222-6.667a7.26 7.26 0 00-2.361-5.106l-6.568-6.1" fill="#E51A8E"/><path d="M265.298 544.144l6.346 4.823.295 4.255c.148 2.412 1.919 4.398 4.281 5.107 1.623.425 3.247-.709 3.173-2.341l-.222-6.667a7.26 7.26 0 00-2.361-5.106l-6.568-6.1" stroke="#17005E" stroke-width="1.107" stroke-miterlimit="10" stroke-linecap="round" stroke-linejoin="round"/><path d="M261.091 410.448s3.616 3.121 7.085 9.504c3.468 6.384 5.092 13.051 5.092 13.051s-8.192-11.277-17.416-15.178a1759.082 1759.082 0 01-16.752-7.377h21.991z" fill="#17005E" stroke="#17005E" stroke-width="1.107" stroke-miterlimit="10" stroke-linecap="round" stroke-linejoin="round"/><path d="M222.348 434.492c1.55-6.738-1.18-13.83-7.01-17.873-.517-.355 0-1.206.516-.851 6.199 4.397 9.151 11.844 7.454 19.008-.074.638-1.107.355-.96-.284zm-20.663 47.237c-10.995 5.107-20.294 13.05-26.788 22.98-.369.567-1.254.071-.885-.497 6.568-10.071 16.014-18.157 27.157-23.334.59-.284 1.107.567.516.851zm-1.476-1.277c-2.361-2.128-4.649-4.255-7.01-6.312-.517-.426.221-1.135.738-.709 2.361 2.127 4.649 4.255 7.01 6.312.517.426-.221 1.135-.738.709z" fill="#17005E"/><path d="M200.726 480.807c-.591-4.823-2.14-9.433-4.502-13.689-.295-.567.591-1.064.886-.496 2.509 4.468 4.059 9.22 4.649 14.185.148.638-.886.638-1.033 0zm-7.085 33.122a795.75 795.75 0 010 32.555c0 .639-1.033.639-1.033 0a795.75 795.75 0 000-32.555c0-.638 1.033-.638 1.033 0z" fill="#17005E"/><path d="M290.462 473.572l-40.588-.354 30.995 10 9.593-9.646z" fill="#17005E" stroke="#17005E" stroke-width="1.107" stroke-miterlimit="10" stroke-linecap="round" stroke-linejoin="round"/><path d="M271.349 429.953c5.166 8.086 10.11 17.235 9.594 27.023-.369 7.66-4.133 15.249-11.291 19.079-.591.284-1.107-.568-.517-.851 7.306-3.83 10.848-11.845 10.774-19.576 0-9.149-4.649-17.589-9.445-25.108-.369-.638.516-1.134.885-.567zm.295 45.96c.222 14.185-.074 28.37-.221 42.556 0 .638-1.033.638-1.033 0 .073-14.186.369-28.371.221-42.556 0-.638 1.033-.638 1.033 0z" fill="#17005E"/><path d="M264.929 410.094c2.214 1.702 4.354 3.333 6.568 5.035 1.475 1.135 3.763 2.199 3.985 4.185.295 2.199-.443 5.036-.738 7.235-.296 2.482-.738 5.035-1.181 7.518-.074.638-1.107.354-.96-.284.443-2.411.812-4.823 1.107-7.234.222-1.986.738-4.043.665-6.029-.074-2.624-2.805-4.043-4.797-5.532-1.771-1.419-3.616-2.766-5.387-4.185-.517-.355.221-1.064.738-.709z" fill="#17005E"/><path d="M272.382 433.641a108.58 108.58 0 00-20.958-9.504c-2.583-.851-5.092-1.206-7.011-3.263-2.804-2.978-5.313-6.17-7.896-9.22-.443-.496.295-1.206.738-.709 2.583 2.979 5.092 6.029 7.675 9.007 2.288 2.554 6.199 2.979 9.372 4.114a110.363 110.363 0 0118.597 8.724c.59.284.074 1.135-.517.851zm46.935 55.677c-.074 5.107.885 10.001 3.025 14.682.295.567-.664 1.064-.885.496-2.14-4.823-3.247-9.929-3.174-15.178 0-.638 1.034-.638 1.034 0z" fill="#17005E"/><path d="M271.497 349.878l-3.1-4.256c-1.107-1.489-1.476-3.263-1.181-5.036l.517-2.695c.664-3.546-1.254-7.022-4.649-8.511l-5.461-2.411c-1.845-.852-3.911-1.064-5.904-.71l-8.708 1.49c-2.214.354-4.206 1.631-5.534 3.404l-1.55 2.128-9.446 1.631c-2.509.426-4.797 1.844-6.273 3.83l-4.428 6.171a13.856 13.856 0 00-2.435 10.568l1.771 9.433c.369 1.915 1.55 3.688 3.174 4.823l3.985 2.624-3.026 4.114a1.991 1.991 0 00.516 2.837l2.805 1.915c1.549 1.064 3.468 1.418 5.313 1.135l4.354-.78a9.427 9.427 0 005.756-3.547l5.756-7.944 22.287-5.532c2.804-.709 4.944-2.908 5.534-5.603l.886-4.043c.443-1.773.074-3.546-.959-5.035z" fill="#5CE67D" stroke="#17005E" stroke-width="1.107" stroke-miterlimit="10" stroke-linecap="round" stroke-linejoin="round"/><path d="M265.519 354.417c-3.468-1.277-8.782-10.852-8.782-10.852l-30.699 26.385 1.845 3.546c.443 2.553-1.033 5.887-3.247 8.653a7.138 7.138 0 003.247.142l4.354-.78a9.427 9.427 0 005.756-3.547l5.756-7.943 22.287-5.533c1.623-.425 3.099-1.347 4.058-2.624-.516-3.333-2.14-6.596-4.575-7.447z" fill="#17005E" stroke="#17005E" stroke-width="1.107" stroke-miterlimit="10" stroke-linecap="round" stroke-linejoin="round"/><path d="M255.925 339.664l-16.308 2.766c.885 3.05-.517 6.313-3.395 7.873l-3.838 2.128-4.575 5.036h-.074v-.071l-3.837.638c-.148 0-.221.071-.369.071l-.443.071v.071c-2.952.922-4.797 3.759-4.28 6.738.59 3.262 3.837 5.461 7.232 4.823l.59-.071c5.092 8.866 9.889 15.036 26.567 12.199 7.453-1.277 12.398-8.156 11.069-15.32l-3.689-19.93c-.517-2.837-2.288-5.32-4.65-7.022z" fill="#E51A8E" stroke="#17005E" stroke-width="1.107" stroke-miterlimit="10" stroke-linecap="round" stroke-linejoin="round"/><path d="M223.455 361.58c1.697.284 3.321.71 4.944 1.206.369.142.517.568.222.851-1.255 1.206-2.435 2.412-3.542 3.759-.443.497-1.107-.212-.738-.709 1.107-1.347 2.287-2.624 3.542-3.759l.221.851c-1.623-.496-3.247-.851-4.944-1.206-.591-.141-.369-1.134.295-.993zm30.478-4.964c.295.78 1.476.993 2.066 1.489.591.496.886 1.206.812 1.986-.148 1.489-1.697 2.411-3.173 1.915-.664-.213-.369-1.135.295-.993.738.213 1.55 0 1.845-.78.295-.78-.295-1.348-.886-1.702-.811-.497-1.549-.781-1.918-1.632-.296-.567.738-.851.959-.283zm-6.789-1.915c.074.496.221.992.295 1.489.148.638-.886.922-.959.284-.074-.497-.222-.993-.296-1.49-.147-.638.812-.922.96-.283zm11.143-2.199c.074.284.148.567.148.922.147.638-.886.922-.96.284-.074-.284-.147-.568-.147-.922-.148-.639.885-.922.959-.284z" fill="#17005E"/><path d="M255.114 371.014l-8.265-1.064 1.18 2.411c.443.851 1.55 1.277 2.436.78l4.649-2.127z" fill="#17005E" stroke="#17005E" stroke-width="1.107" stroke-miterlimit="10" stroke-linecap="round" stroke-linejoin="round"/><path d="M137.04 462.153c-7.377 0-13.357-5.747-13.357-12.837s5.98-12.838 13.357-12.838c7.377 0 13.357 5.748 13.357 12.838 0 7.09-5.98 12.837-13.357 12.837z" fill="#2FE055" stroke="#17005E" stroke-width="1.107" stroke-miterlimit="10" stroke-linecap="round" stroke-linejoin="round"/><path d="M133.645 445.77h7.011c2.73 0 5.018 2.127 5.018 4.822v1.064c0 .71-.59 1.277-1.328 1.277h-2.583c-.738 0-1.329-.567-1.329-1.277v-1.064h-6.789v1.064c0 .71-.59 1.277-1.328 1.277h-2.583c-.738 0-1.328-.567-1.328-1.277v-1.064c0-2.624 2.213-4.822 5.018-4.822h.221z" fill="#DEFAE5" stroke="#17005E" stroke-width="1.107" stroke-miterlimit="10" stroke-linecap="round" stroke-linejoin="round"/><path d="M137.04 496.978c-7.377 0-13.357-5.748-13.357-12.838 0-7.09 5.98-12.837 13.357-12.837 7.377 0 13.357 5.747 13.357 12.837s-5.98 12.838-13.357 12.838z" fill="#E51A8E" stroke="#17005E" stroke-width="1.107" stroke-miterlimit="10" stroke-linecap="round" stroke-linejoin="round"/><path d="M133.645 480.594h7.011c2.73 0 5.018 2.128 5.018 4.823v1.064c0 .709-.59 1.277-1.328 1.277h-2.583c-.738 0-1.329-.568-1.329-1.277v-1.064h-6.789v1.064c0 .709-.59 1.277-1.328 1.277h-2.583c-.738 0-1.328-.568-1.328-1.277v-1.064c0-2.624 2.213-4.823 5.018-4.823h.221z" fill="#FAD1E8" stroke="#17005E" stroke-width="1.107" stroke-miterlimit="10" stroke-linecap="round" stroke-linejoin="round"/><path d="M143.829 477.544l-13.652 13.122z" fill="#FAD1E8"/><path d="M144.419 478.112l-13.652 13.121c-.738.709-1.771-.355-1.107-1.064l13.652-13.121c.665-.709 1.772.354 1.107 1.064z" fill="#17005E"/><path d="M137.04 427.329c-7.377 0-13.357-5.748-13.357-12.838 0-7.09 5.98-12.837 13.357-12.837 7.377 0 13.357 5.747 13.357 12.837s-5.98 12.838-13.357 12.838z" fill="#8F17E6" stroke="#17005E" stroke-width="1.107" stroke-miterlimit="10" stroke-linecap="round" stroke-linejoin="round"/><path d="M136.892 417.896h5.24c.516 0 .885-.355.885-.852v-5.035c0-.497-.369-.851-.885-.851h-5.24c-.516 0-.885.354-.885.851v5.035c0 .426.442.852.885.852zm-4.944-.284l2.804-2.695a.543.543 0 000-.781l-2.804-2.695c-.369-.354-.96-.071-.96.426v5.39c0 .426.591.709.96.355z" fill="#FAD1E8" stroke="#17005E" stroke-width="1.107" stroke-miterlimit="10" stroke-linecap="round" stroke-linejoin="round"/><path d="M410.455 570.386h256.959c4.87 0 8.855-3.83 8.855-8.511V387.397c0-4.681-3.985-8.511-8.855-8.511H410.455c-4.871 0-8.856 3.83-8.856 8.511v174.478c0 4.681 3.985 8.511 8.856 8.511z" stroke="#17005E" stroke-width="2.214" stroke-miterlimit="10" stroke-linecap="round" stroke-linejoin="round"/><path d="M581.736 362.928l.369-2.057c.369-2.411-.221-4.823-1.697-6.738a9.54 9.54 0 00-6.199-3.617l-21.253-3.192c-2.509-.354-5.018.213-7.011 1.632l-7.158 5.035c-3.395 2.412-5.683 5.958-6.347 9.93-.664 3.972.369 8.085 2.878 11.348l3.912 5.178 42.506-17.519z" fill="#E51A8E" stroke="#17005E" stroke-width="1.107" stroke-miterlimit="10" stroke-linecap="round" stroke-linejoin="round"/><path d="M536.204 365.41c.369-2.056 1.55-3.972 3.321-5.177 1.771-1.277 3.985-1.773 6.199-1.419l4.944.78.221 16.03-11.733 4.823-3.911-5.178c-.222-.213-.369-.496-.517-.78l1.476-9.079z" fill="#17005E" stroke="#17005E" stroke-width="1.107" stroke-miterlimit="10" stroke-linecap="round" stroke-linejoin="round"/><path d="M565.132 361.722l2.583-1.347c1.845-.993 4.059-1.348 6.199-1.064l7.97 1.205a10.625 10.625 0 017.232 4.54 10.029 10.029 0 011.18 8.44l-6.641 20.285c-1.181 3.546-3.764 6.525-7.158 8.298-2.288 1.206-4.945 1.631-7.601 1.206l-5.683-.851 1.919-40.712z" fill="#E51A8E" stroke="#17005E" stroke-width="1.107" stroke-miterlimit="10" stroke-linecap="round" stroke-linejoin="round"/><path d="M563.287 402.434l.221-4.894 8.782-11.348 9.003 5.461s-.738 5.107-3.394 9.575c-.443.284-.886.567-1.402.78-2.288 1.206-4.945 1.631-7.601 1.206l-5.609-.78z" fill="#17005E" stroke="#17005E" stroke-width="1.107" stroke-miterlimit="10" stroke-linecap="round" stroke-linejoin="round"/><path d="M543.583 361.226c2.067-1.419 4.65-2.057 7.159-1.632l14.685 2.199 4.576 9.575-3.026-.425 4.575 8.227-1.033 6.312 4.649-4.397 5.166.78 2.583.355c2.73.425 4.575 2.837 4.133 5.461-.443 2.624-2.952 4.398-5.683 3.972l-2.583-.355c-.885 4.894-3.689 9.292-7.896 12.271l-8.044 5.603c-2.583 1.773-5.756 2.553-8.929 2.057l-6.347-.922c-3.173-.497-5.977-2.128-7.822-4.611l-1.845-2.482c-2.14-2.766-2.952-6.242-2.435-9.646l4.28-26.314c.369-2.411 1.771-4.61 3.837-6.028z" fill="#F48914" stroke="#17005E" stroke-width="1.107" stroke-miterlimit="10" stroke-linecap="round" stroke-linejoin="round"/><path d="M551.627 383.426l7.454 1.134a3.142 3.142 0 003.616-2.553l.738-4.539c.295-1.632-.886-3.192-2.657-3.476l-7.453-1.134a3.142 3.142 0 00-3.616 2.553l-.738 4.539c-.222 1.631.959 3.192 2.656 3.476zm-13.135-1.986l2.213.354a3.143 3.143 0 003.617-2.553l.737-4.539c.296-1.632-.885-3.192-2.656-3.476l-2.214-.354a3.142 3.142 0 00-3.616 2.553l-.738 4.539c-.221 1.632.959 3.192 2.657 3.476z" stroke="#17005E" stroke-width="1.107" stroke-miterlimit="10" stroke-linecap="round" stroke-linejoin="round"/><path d="M546.683 376.971c-1.033 1.49-1.993 3.05-2.73 4.681-.591 1.419-1.329 3.83.885 4.327.812.213 1.697.071 2.509 0 .664-.071.664.922 0 .993-2.066.213-4.797.071-5.092-2.483-.295-2.695 2.14-5.957 3.542-8.085.369-.497 1.255 0 .886.567z" fill="#17005E"/><path d="M563.508 377.113l13.062 4.114" stroke="#17005E" stroke-width="1.033" stroke-miterlimit="10" stroke-linecap="round" stroke-linejoin="round"/><path d="M555.612 379.454c-.53 0-.959-.413-.959-.922 0-.51.429-.922.959-.922s.96.412.96.922c0 .509-.43.922-.96.922zm-14.316-2.128c-.53 0-.96-.413-.96-.922 0-.509.43-.922.96-.922s.959.413.959.922c0 .509-.429.922-.959.922z" fill="#17005E" stroke="#17005E" stroke-width="1.107" stroke-miterlimit="10" stroke-linecap="round" stroke-linejoin="round"/><path d="M544.395 399.384c4.28 1.56 9.003.425 12.029-2.979.443-.496 1.181.213.738.709-3.173 3.618-8.413 4.894-12.988 3.192-.664-.142-.443-1.135.221-.922zm39.186-14.043c-1.107.922-2.361 1.56-3.763 1.844v-.922c1.549.283 2.804 1.134 3.689 2.34.369.497-.516.993-.885.497-.738-.993-1.845-1.632-3.1-1.844-.516-.071-.516-.852 0-.922 1.255-.213 2.362-.781 3.321-1.561.443-.567 1.181.142.738.568z" fill="#17005E"/><path d="M406.765 462.295l14.686 18.299 2.287-3.192c.96-1.418 3.026-1.631 4.354-.567l9.52 7.731 34.241 9.433 48.337 9.575-24.943 35.534-63.391-35.392L414.44 487.9l-10.258-12.625-6.125-11.774c-.664-1.206 0-2.695 1.402-3.121l.664-.213c2.51-.638 5.092.213 6.642 2.128z" fill="#F48914" stroke="#17005E" stroke-width="1.107" stroke-miterlimit="10" stroke-linecap="round" stroke-linejoin="round"/><path d="M520.19 503.574l-17.416 24.895c-.738 1.064-22.508-32.839-22.508-32.839l39.924 7.944z" fill="#17005E" stroke="#17005E" stroke-width="1.107" stroke-miterlimit="10" stroke-linecap="round" stroke-linejoin="round"/><path d="M471.854 493.999l13.947-35.037c7.011-17.732 24.722-29.435 44.499-29.435h57.856c18.892 0 34.98 13.264 37.858 31.208l8.265 51.563h-28.485l-2.583 57.663h-96.526l-5.018-58.869-29.813-17.093z" fill="#5CE67D" stroke="#17005E" stroke-width="1.107" stroke-miterlimit="10" stroke-linecap="round" stroke-linejoin="round"/><path d="M603.801 558.258l-51.067-24.115 51.953 3.192-.886 20.923zm-13.135-46.031l-.96-50.145-15.128 33.761 16.088 16.384zm-88.999-1.135l2.878-50.641-13.505 34.186 10.627 16.455z" fill="#17005E" stroke="#17005E" stroke-width="1.107" stroke-miterlimit="10" stroke-linecap="round" stroke-linejoin="round"/><path d="M393.344 452.111L420.63 419.5l177.417 137.126-27.286 32.611-177.417-137.126z" fill="#E51A8E" stroke="#17005E" stroke-width="1.107" stroke-miterlimit="10" stroke-linecap="round" stroke-linejoin="round"/><path d="M399.541 444.704l14.938-17.853 177.417 137.126-14.938 17.853-177.417-137.126z" fill="#E51A8E" stroke="#17005E" stroke-width="1.107" stroke-miterlimit="10" stroke-linecap="round" stroke-linejoin="round"/><path d="M374.664 407.965l45.975 11.49-27.305 32.626-20.81-41.704c-.591-1.348.664-2.837 2.14-2.412z" fill="#F8B872" stroke="#17005E" stroke-width="1.107" stroke-miterlimit="10" stroke-linecap="round" stroke-linejoin="round"/><path d="M384.848 418.605a15.203 15.203 0 01-5.904 4.397l-6.346-12.695c-.665-1.348.59-2.767 2.066-2.412l13.578 3.405c-.442 2.624-1.549 5.177-3.394 7.305zm211.721 93.622h24.501l.073 8.582-24.574-8.582zm-59.996-82.771H571.7c-.295 9.079-8.044 16.313-17.564 16.313-9.519 0-17.194-7.234-17.563-16.313z" fill="#17005E" stroke="#17005E" stroke-width="1.107" stroke-miterlimit="10" stroke-linecap="round" stroke-linejoin="round"/><path d="M413.259 483.999l-2.361-10.994c-.295-1.489-.222-2.979.295-4.397l4.133-11.419c.369-1.064 1.697-1.419 2.582-.71l1.624 1.277c1.919 1.56 2.878 3.901 2.657 6.241l-.812 8.299 3.985 10.993" fill="#F48914"/><path d="M413.259 483.999l-2.361-10.994c-.295-1.489-.222-2.979.295-4.397l4.133-11.419c.369-1.064 1.697-1.419 2.582-.71l1.624 1.277c1.919 1.56 2.878 3.901 2.657 6.241l-.812 8.299 3.985 10.993" stroke="#17005E" stroke-width="1.107" stroke-miterlimit="10" stroke-linecap="round" stroke-linejoin="round"/><path d="M420.344 490.098l-1.919-10.355 7.97-13.476c.517-.851 1.771-.922 2.362-.213l1.549 1.844a7.35 7.35 0 011.329 7.235c-.886 2.482-1.845 5.177-1.845 5.177l1.18 9.575" fill="#F48914"/><path d="M420.344 490.098l-1.919-10.355 7.97-13.476c.517-.851 1.771-.922 2.362-.213l1.549 1.844a7.35 7.35 0 011.329 7.235c-.886 2.482-1.845 5.177-1.845 5.177l1.18 9.575" stroke="#17005E" stroke-width="1.107" stroke-miterlimit="10" stroke-linecap="round" stroke-linejoin="round"/><path d="M595.315 431.868c-4.207 5.107-6.273 11.348-5.904 17.873 0 .639-1.033.639-1.033 0-.369-6.809 1.771-13.263 6.199-18.582.443-.497 1.181.212.738.709zm-81.176 3.121c-5.313 4.61-8.265 11.064-8.265 17.944 0 .638-1.033.638-1.033 0 0-7.164 3.099-13.831 8.634-18.654.442-.425 1.18.284.664.71zm116.893 68.372c-12.324-.993-24.722-.496-36.898 1.561-.664.142-.959-.851-.295-.922 12.25-2.057 24.722-2.554 37.193-1.561.664 0 .664.993 0 .922zm-53.871-73.266c-1.402 4.965-3.469 10.993-7.454 14.611-4.427 3.971-11.217 5.815-17.194 5.815-11.143-.07-21.254-9.362-20.22-20.284.073-.639 1.107-.639 1.033 0-1.033 10.78 9.003 19.575 19.925 19.292 5.535-.142 12.102-1.986 16.087-5.887 3.616-3.547 5.535-9.079 6.863-13.76.148-.709 1.181-.425.96.213zm19.408 129.582a65.055 65.055 0 01-1.107 9.291c-.147.638-1.107.354-1.033-.284a61.19 61.19 0 001.107-9.007c0-.639 1.033-.639 1.033 0z" fill="#17005E"/><path d="M555.022 450.451c-.295 5.816-.59 11.702-.959 17.518 0 .355-.296.568-.665.497-1.992-.426-3.911-.568-5.903-.497-.295 0-.517-.212-.517-.496.295-5.745.664-11.49 1.181-17.164.074-.639 1.107-.639 1.033 0a324.622 324.622 0 00-.886 11.915c-.073 1.277-.811 4.256.517 4.752 1.255.497 3.542.284 4.871.568-.222.142-.443.354-.665.496.369-5.816.738-11.703.96-17.518 0-.71 1.033-.71 1.033-.071z" fill="#17005E"/><path d="M551.923 452.578c1.107.993.664 2.837-.738 3.334-.591.213-.886-.709-.296-.922.665-.284.738-1.277.296-1.702-.443-.426.295-1.135.738-.71zm-.886 8.866c1.55.638 1.255 2.837-.369 3.192-.664.142-.959-.851-.295-.922.812-.142.812-1.064.074-1.348-.517-.284 0-1.135.59-.922zm2.361 8.653c-1.918-.071-3.837-.071-5.682.071-.664.071-.664-.922 0-.993 1.919-.142 3.764-.142 5.682-.071.665.071.665 1.064 0 .993zm-24.205 1.56c-5.534-.496-11.069-.709-16.604-.567-.664 0-.664-.993 0-.993 5.535-.142 11.07 0 16.604.567.664 0 .664.993 0 .993z" fill="#17005E"/><path d="M530.448 471.232c0 1.844-.074 3.688-.295 5.532 0 .284-.222.497-.517.497-5.535-.142-11.143 0-16.678-.142-3.542-.071-1.919-4.681-1.402-6.951.148-.638 1.107-.355 1.033.284-.295 1.347-.812 3.05-.59 4.468.295 1.56 1.107 1.277 2.509 1.277h6.568c2.14 0 4.501.354 6.568.071 1.549-.142 1.328 0 1.697-1.277.295-1.064.148-2.553.074-3.688 0-.709 1.033-.709 1.033-.071z" fill="#17005E"/><path d="M477.314 521.376l20.737-9.149-7.158-1.206c-2.435-.425-4.428-1.986-5.24-4.184l-.885-2.199c-.591-1.49.738-3.05 2.361-2.766l17.047 2.482c2.583.355 5.018 1.561 6.863 3.263l4.945 4.61H621.07l.221 15.958c.148 11.065-9.962 19.576-21.327 18.086l-83.98-11.206-14.833 6.667a13.95 13.95 0 01-8.487.993l-3.026-.567a7.453 7.453 0 01-6.051-6.1l-.443-2.695h4.797l-10.627-11.987z" fill="#F48914" stroke="#17005E" stroke-width="1.107" stroke-miterlimit="10" stroke-linecap="round" stroke-linejoin="round"/><path d="M492.959 535.704c-.295-.071-2.14 0-4.28.141-4.133.284-7.97-1.986-9.593-5.674l-2.51-5.674 8.266 1.561" fill="#F48914"/><path d="M492.959 535.704c-.295-.071-2.14 0-4.28.141-4.133.284-7.97-1.986-9.593-5.674l-2.51-5.674 8.266 1.561" stroke="#17005E" stroke-width="1.107" stroke-miterlimit="10" stroke-linecap="round" stroke-linejoin="round"/><path d="M483.44 520.454l-9.004-5.461-.442 5.249a6.497 6.497 0 002.214 5.39l1.844 1.631c1.624 1.49 3.838 2.27 6.126 2.27h3.616" fill="#F48914"/><path d="M483.44 520.454l-9.004-5.461-.442 5.249a6.497 6.497 0 002.214 5.39l1.844 1.631c1.624 1.49 3.838 2.27 6.126 2.27h3.616" stroke="#17005E" stroke-width="1.107" stroke-miterlimit="10" stroke-linecap="round" stroke-linejoin="round"/><path d="M653.835 496.907c-7.377 0-13.357-5.748-13.357-12.838 0-7.09 5.98-12.837 13.357-12.837 7.377 0 13.357 5.747 13.357 12.837s-5.98 12.838-13.357 12.838z" fill="#2FE055" stroke="#17005E" stroke-width="1.107" stroke-miterlimit="10" stroke-linecap="round" stroke-linejoin="round"/><path d="M650.441 480.523h7.01c2.731 0 5.018 2.128 5.018 4.823v1.064c0 .709-.59 1.277-1.328 1.277h-2.583c-.738 0-1.328-.568-1.328-1.277v-1.064h-6.789v1.064c0 .709-.591 1.277-1.329 1.277h-2.583c-.738 0-1.328-.568-1.328-1.277v-1.064c0-2.624 2.214-4.823 5.018-4.823h.222z" fill="#DEFAE5" stroke="#17005E" stroke-width="1.107" stroke-miterlimit="10" stroke-linecap="round" stroke-linejoin="round"/><path d="M653.835 531.732c-7.377 0-13.357-5.748-13.357-12.838 0-7.09 5.98-12.837 13.357-12.837 7.377 0 13.357 5.747 13.357 12.837s-5.98 12.838-13.357 12.838z" fill="#E51A8E" stroke="#17005E" stroke-width="1.107" stroke-miterlimit="10" stroke-linecap="round" stroke-linejoin="round"/><path d="M650.441 515.348h7.01c2.731 0 5.018 2.128 5.018 4.823v1.064c0 .709-.59 1.276-1.328 1.276h-2.583c-.738 0-1.328-.567-1.328-1.276v-1.064h-6.789v1.064c0 .709-.591 1.276-1.329 1.276h-2.583c-.738 0-1.328-.567-1.328-1.276v-1.064c0-2.624 2.214-4.823 5.018-4.823h.222z" fill="#FAD1E8" stroke="#17005E" stroke-width="1.107" stroke-miterlimit="10" stroke-linecap="round" stroke-linejoin="round"/><path d="M660.624 512.369l-13.652 13.121z" fill="#FAD1E8"/><path d="M661.215 512.865l-13.653 13.122c-.738.709-1.771-.355-1.107-1.064l13.653-13.122c.738-.638 1.771.426 1.107 1.064z" fill="#17005E"/><path d="M653.835 462.082c-7.377 0-13.357-5.747-13.357-12.837s5.98-12.838 13.357-12.838c7.377 0 13.357 5.748 13.357 12.838 0 7.09-5.98 12.837-13.357 12.837z" fill="#8F17E6" stroke="#17005E" stroke-width="1.107" stroke-miterlimit="10" stroke-linecap="round" stroke-linejoin="round"/><path d="M653.761 452.649h5.24c.516 0 .885-.354.885-.851v-5.036c0-.496-.369-.851-.885-.851h-5.24c-.516 0-.885.355-.885.851v5.036c0 .497.369.851.885.851zm-5.018-.283l2.878-2.696a.54.54 0 000-.78l-2.804-2.695c-.369-.355-.959-.071-.959.426v5.39c-.074.497.516.709.885.355z" fill="#FAD1E8" stroke="#17005E" stroke-width="1.107" stroke-miterlimit="10" stroke-linecap="round" stroke-linejoin="round"/><path d="M586.976 338.104H330.017c-4.871 0-8.856-3.83-8.856-8.511V155.115c0-4.681 3.985-8.511 8.856-8.511h256.959c4.87 0 8.855 3.83 8.855 8.511v174.478c0 4.681-3.985 8.511-8.855 8.511z" stroke="#17005E" stroke-width="2.214" stroke-miterlimit="10" stroke-linecap="round" stroke-linejoin="round"/><path d="M443.294 145.256s-20.072-3.901-12.25-26.03c7.823-22.128 55.79-17.873 62.284 5.32 6.568 23.193-11.438 23.264-17.785 23.902-6.272.496-32.249-3.192-32.249-3.192z" fill="#17005E" stroke="#17005E" stroke-width="1.107" stroke-miterlimit="10" stroke-linecap="round" stroke-linejoin="round"/><path d="M458.496 128.801l3.321 3.05 5.387-.922 4.871 5.958 7.896-1.419c2.583-.425 5.018 1.206 5.535 3.689.443 2.482-1.255 4.823-3.838 5.319l-3.247.567.812 14.682c.148 2.128-.959 4.114-2.878 5.249l-9.741 5.603c-4.723 2.695-10.848.709-12.841-4.256L439.9 131.993l18.596-3.192z" fill="#F48914" stroke="#17005E" stroke-width="1.107" stroke-miterlimit="10" stroke-linecap="round" stroke-linejoin="round"/><path d="M481.447 138.376a6.388 6.388 0 00-1.845 2.767c-.221-.213-.517-.355-.738-.568 1.107-.425 2.14-.425 3.247.071.59.284.074 1.135-.517.851-.664-.354-1.475-.354-2.14-.071-.369.142-.885-.071-.738-.567.369-1.277 1.107-2.341 2.067-3.263.442-.354 1.18.355.664.78zm-27.821.284c.664 1.844 1.107 3.759 1.107 5.745.073 2.837-1.55 6.596 2.213 8.015.591.213.369 1.206-.295.922-1.845-.709-3.099-1.986-3.321-3.901-.147-1.56.296-3.121.369-4.61.074-2.057-.369-3.972-1.107-5.887-.221-.638.812-.922 1.034-.284z" fill="#17005E"/><path d="M465.581 154.831l-2.583 2.412a6.727 6.727 0 01-4.428 1.702c-1.254 0-1.918 1.489-.959 2.341l.59.496c1.771 1.56 4.207 1.986 6.421 1.277l1.402-.497c1.033-.354 1.623-1.418 1.328-2.482l-1.771-5.249z" fill="#17005E" stroke="#17005E" stroke-width="1.107" stroke-miterlimit="10" stroke-linecap="round" stroke-linejoin="round"/><path d="M460.267 137.809c.222 1.064.369 2.128.591 3.121.147.638-.886.922-1.033.283-.222-1.063-.369-2.127-.591-3.12-.074-.639.96-.922 1.033-.284zm-10.552 2.837c.221 1.064.369 2.128.59 3.121.148.638-.886.922-1.033.284-.222-1.064-.369-2.128-.591-3.121-.073-.709.886-.922 1.034-.284z" fill="#17005E"/><path d="M350.532 340.232l-9.003 6.596-6.937-.142c-1.845-.071-3.542.993-4.28 2.624l-.959 2.057c-.295.709.147 1.56.959 1.631l15.719 2.27 9.593-8.511" fill="#F48914"/><path d="M350.532 340.232l-9.003 6.596-6.937-.142c-1.845-.071-3.542.993-4.28 2.624l-.959 2.057c-.295.709.147 1.56.959 1.631l15.719 2.27 9.593-8.511" stroke="#17005E" stroke-width="1.107" stroke-miterlimit="10" stroke-linecap="round" stroke-linejoin="round"/><path d="M361.454 351.225l-9.519 9.504c-1.476.568-2.731 1.064-4.281 1.632l-11.291-.568c-1.697-.071-2.878-1.56-2.656-3.121.369-2.34 2.361-4.184 4.797-4.397l8.265-.638 8.634-8.299" fill="#F48914"/><path d="M361.454 351.225l-9.519 9.504c-1.476.568-2.731 1.064-4.281 1.632l-11.291-.568c-1.697-.071-2.878-1.56-2.656-3.121.369-2.34 2.361-4.184 4.797-4.397l8.265-.638 8.634-8.299" stroke="#17005E" stroke-width="1.107" stroke-miterlimit="10" stroke-linecap="round" stroke-linejoin="round"/><path d="M363.299 320.301l-11.217-2.411a9.303 9.303 0 00-7.453 1.56l-10.849 7.802-1.18.709a1.824 1.824 0 000 3.192l.147.071c2.878 1.631 6.421 1.702 9.299.213l5.018-2.554 4.28 1.561-3.321 6.738c-1.181 2.411-.443 5.319 1.771 6.951l10.627 7.801-6.42 6.597-6.494 3.546c-1.403.78-2.362 2.128-2.583 3.759-.148 1.347 1.107 2.411 2.435 2.128l10.036-2.27a7.38 7.38 0 003.616-1.915l9.372-8.582 11.513-17.661-18.597-17.235z" fill="#F48914" stroke="#17005E" stroke-width="1.107" stroke-miterlimit="10" stroke-linecap="round" stroke-linejoin="round"/><path d="M351.861 329.947c1.771 5.887 8.412 7.164 14.021 6.526.664-.071.664.922 0 .993-6.125.709-13.136-.923-15.054-7.306-.148-.567.811-.78 1.033-.213z" fill="#17005E"/><path d="M400.566 255.333l-7.084 29.435-30.183 35.533 18.523 17.165 49.37-42.414 6.42-39.719h-37.046z" fill="#17005E" stroke="#17005E" stroke-width="1.107" stroke-miterlimit="10" stroke-linecap="round" stroke-linejoin="round"/><path d="M550.52 249.305l-8.634-32.839c-3.616-13.618-16.309-23.122-30.921-23.122h-73.427c-13.8 0-25.902 8.937-29.445 21.774l-11.069 40.215h20.146l-9.741 82.062h133.793l-9.741-82.062h14.169c3.321 0 5.682-2.979 4.87-6.028z" fill="#8F17E6" stroke="#17005E" stroke-width="1.107" stroke-miterlimit="10" stroke-linecap="round" stroke-linejoin="round"/><path d="M393.482 240.226h160.802c.664 0 .664.993 0 .993H393.482c-.664 0-.664-.993 0-.993z" fill="#D1CCDF"/><path d="M393.482 237.46h160.802c.664 0 .664.993 0 .993H393.482c-.664 0-.664-.993 0-.993z" fill="#17005E"/><path d="M393.482 257.816h160.802c.664 0 .664.993 0 .993H393.482c-.664 0-.664-.993 0-.993z" fill="#D1CCDF"/><path d="M393.482 255.12h160.802c.664 0 .664.993 0 .993H393.482c-.664 0-.664-.993 0-.993z" fill="#17005E"/><path d="M393.482 204.905h160.802c.664 0 .664.993 0 .993H393.482c-.664 0-.664-.993 0-.993z" fill="#D1CCDF"/><path d="M393.482 202.21h160.802c.664 0 .664.993 0 .993H393.482c-.664 0-.664-.993 0-.993z" fill="#17005E"/><path d="M393.482 222.565h160.802c.664 0 .664.993 0 .993H393.482c-.664 0-.664-.993 0-.993z" fill="#D1CCDF"/><path d="M393.482 219.799h160.802c.664 0 .664.993 0 .993H393.482c-.664 0-.664-.993 0-.993z" fill="#17005E"/><path d="M393.482 275.476h160.802c.664 0 .664.993 0 .993H393.482c-.664 0-.664-.993 0-.993z" fill="#D1CCDF"/><path d="M393.482 272.71h160.802c.664 0 .664.993 0 .993H393.482c-.664 0-.664-.993 0-.993z" fill="#17005E"/><path d="M393.482 293.066h160.802c.664 0 .664.993 0 .993H393.482c-.664 0-.664-.993 0-.993z" fill="#D1CCDF"/><path d="M393.482 290.371h160.802c.664 0 .664.993 0 .993H393.482c-.664 0-.664-.993 0-.993z" fill="#17005E"/><path d="M393.482 310.727h160.802c.664 0 .664.992 0 .992H393.482c-.664 0-.664-.992 0-.992z" fill="#D1CCDF"/><path d="M393.482 307.96h160.802c.664 0 .664.993 0 .993H393.482c-.664 0-.664-.993 0-.993z" fill="#17005E"/><path d="M393.482 328.316h160.802c.664 0 .664.993 0 .993H393.482c-.664 0-.664-.993 0-.993z" fill="#D1CCDF"/><path d="M393.482 325.621h160.802c.664 0 .664.993 0 .993H393.482c-.664 0-.664-.993 0-.993z" fill="#17005E"/><path d="M550.52 249.305l-8.634-32.839c-3.616-13.618-16.309-23.122-30.921-23.122h-73.427c-13.8 0-25.902 8.937-29.445 21.774l-11.069 40.215h20.146l-9.741 82.062h133.793l-9.741-82.062h14.169c3.321 0 5.682-2.979 4.87-6.028z" stroke="#17005E" stroke-width="1.107" stroke-miterlimit="10" stroke-linecap="round" stroke-linejoin="round"/><path d="M518.935 335.48l-118.812-16.81c-1.992-.284-3.394-2.057-3.099-3.972l1.476-9.433c.295-1.915 2.14-3.262 4.132-2.979l118.812 16.81c1.993.283 3.395 2.057 3.1 3.972l-1.476 9.433c-.295 1.986-2.14 3.262-4.133 2.979z" fill="#82EC99" stroke="#17005E" stroke-width="1.107" stroke-miterlimit="10" stroke-linecap="round" stroke-linejoin="round"/><path d="M424.107 319.663l-27.231-3.83 1.771-11.561 27.231 3.83c1.624.213 2.805 1.702 2.509 3.263l-.885 5.887c-.222 1.56-1.697 2.624-3.395 2.411z" fill="#DEFAE5" stroke="#17005E" stroke-width="1.107" stroke-miterlimit="10" stroke-linecap="round" stroke-linejoin="round"/><path d="M517.148 332.822l-4.672-.662 1.776-11.578 4.673.662-1.777 11.578zm-80.014-11.339l-4.673-.663 1.777-11.577 4.672.662-1.776 11.578z" fill="#F48914" stroke="#17005E" stroke-width="1.107" stroke-miterlimit="10" stroke-linecap="round" stroke-linejoin="round"/><path d="M398.352 306.471l30.183 4.326m-30.552-2.057l30.183 4.327m-30.552-2.057l30.257 4.256m-30.626-1.986l30.257 4.255" stroke="#17005E" stroke-width="1.107" stroke-miterlimit="10" stroke-linecap="round" stroke-linejoin="round"/><path d="M418.72 309.733l-.885 5.887 3.542-1.773 2.878 2.695.959-6.099-6.42-.922" fill="#E51A8E"/><path d="M418.72 309.733l-.885 5.887 3.542-1.773 2.878 2.695.959-6.099-6.42-.922" stroke="#17005E" stroke-width="1.107" stroke-miterlimit="10" stroke-linecap="round" stroke-linejoin="round"/><path d="M516.427 358.46l-118.813-16.81c-1.992-.284-3.394-2.057-3.099-3.972l2.435-15.887c.296-1.915 2.14-3.263 4.133-2.979l118.812 16.809c1.992.284 3.395 2.057 3.099 3.972l-2.435 15.888c-.295 1.986-2.14 3.262-4.132 2.979z" fill="#E51A8E" stroke="#17005E" stroke-width="1.107" stroke-miterlimit="10" stroke-linecap="round" stroke-linejoin="round"/><path d="M408.979 339.877l-14.464-2.057 2.509-16.171 14.464 2.057c1.624.213 2.804 1.702 2.509 3.262l-1.623 10.498c-.222 1.56-1.698 2.624-3.395 2.411z" fill="#DEFAE5" stroke="#17005E" stroke-width="1.107" stroke-miterlimit="10" stroke-linecap="round" stroke-linejoin="round"/><path d="M514.761 354.846l-4.673-.662 2.487-16.209 4.673.663-2.487 16.208zm-8.997-5.939l-87.316-12.377 1.087-7.087 87.316 12.377-1.087 7.087z" fill="#8636CC" stroke="#17005E" stroke-width="1.107" stroke-miterlimit="10" stroke-linecap="round" stroke-linejoin="round"/><path d="M396.507 324.841l17.49 2.482m-17.932.638l17.416 2.483m-17.933.638l17.49 2.483m-17.933.709l17.416 2.482" stroke="#17005E" stroke-width="1.107" stroke-miterlimit="10" stroke-linecap="round" stroke-linejoin="round"/><path d="M403.444 325.55l-1.033 6.596 3.616-2.057 2.804 2.979 1.034-6.809-6.421-.851" fill="#F48914"/><path d="M403.444 325.55l-1.033 6.596 3.616-2.057 2.804 2.979 1.034-6.809-6.421-.851" stroke="#17005E" stroke-width="1.107" stroke-miterlimit="10" stroke-linecap="round" stroke-linejoin="round"/><path d="M529.562 319.521l-125.38-17.802c-1.992-.284-3.394-2.057-3.099-3.972l2.435-15.887c.295-1.915 2.14-3.263 4.133-2.979l125.38 17.802c1.992.284 3.394 2.057 3.099 3.972l-2.435 15.887c-.295 1.915-2.14 3.263-4.133 2.979z" fill="#E51A8E" stroke="#17005E" stroke-width="1.107" stroke-miterlimit="10" stroke-linecap="round" stroke-linejoin="round"/><path d="M416.506 300.087l-15.423-2.198 2.509-16.171 15.423 2.198c1.624.213 2.805 1.703 2.509 3.263l-1.623 10.497c-.222 1.56-1.771 2.695-3.395 2.411z" fill="#DEFAE5" stroke="#17005E" stroke-width="1.107" stroke-miterlimit="10" stroke-linecap="round" stroke-linejoin="round"/><path d="M527.667 315.867l-4.965-.704 2.487-16.209 4.965.704-2.487 16.209z" fill="#FDE7D0" stroke="#17005E" stroke-width="1.107" stroke-miterlimit="10" stroke-linecap="round" stroke-linejoin="round"/><path d="M518.106 309.823l-91.842-13.018 1.087-7.087 91.843 13.018-1.088 7.087z" fill="#EF76BB" stroke="#17005E" stroke-width="1.107" stroke-miterlimit="10" stroke-linecap="round" stroke-linejoin="round"/><path d="M403.075 284.98l18.376 2.554m-18.892.567l18.375 2.624m-18.818.497l18.375 2.624m-18.892.497l18.376 2.624" stroke="#17005E" stroke-width="1.107" stroke-miterlimit="10" stroke-linecap="round" stroke-linejoin="round"/><path d="M410.381 285.76l-1.033 6.597 3.764-2.057 2.951 2.979 1.107-6.809-6.789-.922" fill="#F48914"/><path d="M410.381 285.76l-1.033 6.597 3.764-2.057 2.951 2.979 1.107-6.809-6.789-.922" stroke="#17005E" stroke-width="1.107" stroke-miterlimit="10" stroke-linecap="round" stroke-linejoin="round"/><path d="M515.246 374.56l-118.812-16.81c-1.993-.283-3.395-2.057-3.1-3.972l1.402-9.007c.296-1.915 2.14-3.263 4.133-2.979l118.812 16.809c1.993.284 3.395 2.057 3.1 3.972l-1.403 9.008c-.295 1.986-2.14 3.262-4.132 2.979z" fill="#82EC99" stroke="#17005E" stroke-width="1.107" stroke-miterlimit="10" stroke-linecap="round" stroke-linejoin="round"/><path d="M420.417 358.814l-27.23-3.83 1.771-11.348 27.231 3.83c1.623.213 2.804 1.702 2.509 3.263l-.886 5.603c-.221 1.631-1.697 2.695-3.395 2.482z" fill="#DEFAE5" stroke="#17005E" stroke-width="1.107" stroke-miterlimit="10" stroke-linecap="round" stroke-linejoin="round"/><path d="M430.133 351.416l74.978 10.627-.883 5.754-74.978-10.627.883-5.754z" fill="#8636CC" stroke="#17005E" stroke-width="1.107" stroke-miterlimit="10" stroke-linecap="round" stroke-linejoin="round"/><path d="M510.329 363.809l4.015.569-.581 3.789-4.016-.569.582-3.789z" fill="#E51A8E" stroke="#17005E" stroke-width="1.107" stroke-miterlimit="10" stroke-linecap="round" stroke-linejoin="round"/><path d="M394.589 345.835l30.256 4.326m-30.625-2.128l30.256 4.327m-30.552-2.128l30.183 4.327m-30.551-2.128l30.256 4.326" stroke="#17005E" stroke-width="1.107" stroke-miterlimit="10" stroke-linecap="round" stroke-linejoin="round"/><path d="M418.646 349.452l-.885 6.1-2.509-2.696-3.173 1.915 1.033-6.312 5.608.78" fill="#E51A8E"/><path d="M418.646 349.452l-.885 6.1-2.509-2.696-3.173 1.915 1.033-6.312 5.608.78" stroke="#17005E" stroke-width="1.107" stroke-miterlimit="10" stroke-linecap="round" stroke-linejoin="round"/><path d="M514.95 293.633l-100.215-14.185c-1.992-.284-3.395-2.057-3.099-3.972l1.033-6.667c.295-1.915 2.14-3.262 4.132-2.979l100.216 14.186c1.992.283 3.394 2.056 3.099 3.971l-1.033 6.667c-.295 1.986-2.214 3.263-4.133 2.979z" fill="#F48914" stroke="#17005E" stroke-width="1.107" stroke-miterlimit="10" stroke-linecap="round" stroke-linejoin="round"/><path d="M434.217 280.228l-22.803-3.262 1.476-9.646 22.803 3.262c1.624.213 2.804 1.703 2.509 3.263l-.59 3.901c-.221 1.631-1.771 2.695-3.395 2.482z" fill="#DEFAE5" stroke="#17005E" stroke-width="1.107" stroke-miterlimit="10" stroke-linecap="round" stroke-linejoin="round"/><path d="M442.912 274.038l63.881 9.055-.754 4.911-63.881-9.054.754-4.912z" fill="#8636CC" stroke="#17005E" stroke-width="1.107" stroke-miterlimit="10" stroke-linecap="round" stroke-linejoin="round"/><path d="M511.239 284.552l3.432.486-.496 3.228-3.431-.487.495-3.227z" fill="#E51A8E" stroke="#17005E" stroke-width="1.107" stroke-miterlimit="10" stroke-linecap="round" stroke-linejoin="round"/><path d="M412.595 269.235l25.755 3.688m-26.05-1.773l25.755 3.617m-26.05-1.773l25.755 3.617m-26.051-1.773l25.829 3.688" stroke="#17005E" stroke-width="1.107" stroke-miterlimit="10" stroke-linecap="round" stroke-linejoin="round"/><path d="M433.11 272.285l-.811 5.248-2.067-2.341-2.73 1.703.885-5.462 4.797.71" fill="#E51A8E"/><path d="M433.11 272.285l-.811 5.248-2.067-2.341-2.73 1.703.885-5.462 4.797.71" stroke="#17005E" stroke-width="1.107" stroke-miterlimit="10" stroke-linecap="round" stroke-linejoin="round"/><path d="M417.17 255.333l4.723-35.534-12.766 23.902 8.043 11.632zm128.554 0h-36.972v30.782l-42.729 46.528 18.523 18.44 56.897-54.684 4.281-41.066zm-36.973 0v-35.534l-11.364 28.016 11.364 7.518zm-27.673-61.989h-30.109c2.657 8.653 8.413 14.682 15.054 14.682 6.642 0 12.398-6.029 15.055-14.682z" fill="#17005E" stroke="#17005E" stroke-width="1.107" stroke-miterlimit="10" stroke-linecap="round" stroke-linejoin="round"/><path d="M466.024 332.643l-9.151-1.419c-3.764-.567-7.601.355-10.627 2.553l-9.446 6.809-1.181.71a1.824 1.824 0 000 3.191l.148.071c2.878 1.631 6.42 1.702 9.298.213l5.019-2.553 4.28 1.56-3.764 13.192 12.767 8.298-5.24 3.83-5.682-1.844-3.764 3.972 8.635 4.54c3.025 1.631 6.863 1.134 9.372-1.206l6.641-6.1 11.217-17.377-18.522-18.44z" fill="#F48914" stroke="#17005E" stroke-width="1.107" stroke-miterlimit="10" stroke-linecap="round" stroke-linejoin="round"/><path d="M464.326 363.85l-5.756 7.092c-2.435 3.05-6.789 3.901-10.258 2.057l-6.494-3.404.222-4.823 7.084 1.844 5.682-7.518" fill="#F48914"/><path d="M464.326 363.85l-5.756 7.092c-2.435 3.05-6.789 3.901-10.258 2.057l-6.494-3.404.222-4.823 7.084 1.844 5.682-7.518" stroke="#17005E" stroke-width="1.107" stroke-miterlimit="10" stroke-linecap="round" stroke-linejoin="round"/><path d="M451.043 355.906l-9.003 6.596-6.937-.142c-1.845-.07-3.542.993-4.28 2.625l-.96 2.057c-.295.709.148 1.56.96 1.631l12.545 1.844a7.517 7.517 0 005.609-1.49l10.11-8.298" fill="#F48914"/><path d="M451.043 355.906l-9.003 6.596-6.937-.142c-1.845-.07-3.542.993-4.28 2.625l-.96 2.057c-.295.709.148 1.56.96 1.631l12.545 1.844a7.517 7.517 0 005.609-1.49l10.11-8.298" stroke="#17005E" stroke-width="1.107" stroke-miterlimit="10" stroke-linecap="round" stroke-linejoin="round"/><path d="M516.795 195.685c-5.903 3.971-7.158 10-7.084 16.525 0 .639-1.033.639-1.033 0-.074-6.95 1.328-13.192 7.601-17.377.59-.354 1.107.497.516.852zm-81.471.283c-6.568 2.554-8.855 9.292-10.036 15.462-.148.638-1.107.355-1.033-.284 1.254-6.596 3.764-13.475 10.774-16.171.664-.212.886.78.295.993zm94.829 112.276c-.148 9.717.073 19.505.811 29.222.074.638-.959.638-1.033 0-.738-9.717-.959-19.434-.812-29.222 0-.638 1.034-.638 1.034 0z" fill="#17005E"/><path d="M574.356 255.121c-7.376 0-13.357-5.748-13.357-12.838 0-7.09 5.981-12.838 13.357-12.838 7.377 0 13.358 5.748 13.358 12.838 0 7.09-5.981 12.838-13.358 12.838z" fill="#2FE055" stroke="#17005E" stroke-width="1.107" stroke-miterlimit="10" stroke-linecap="round" stroke-linejoin="round"/><path d="M570.888 238.737h7.011c2.73 0 5.018 2.127 5.018 4.823v1.063c0 .71-.59 1.277-1.328 1.277h-2.583c-.738 0-1.329-.567-1.329-1.277v-1.063h-6.789v1.063c0 .71-.59 1.277-1.328 1.277h-2.583c-.738 0-1.328-.567-1.328-1.277v-1.063c0-2.625 2.213-4.823 5.018-4.823h.221z" fill="#DEFAE5" stroke="#17005E" stroke-width="1.107" stroke-miterlimit="10" stroke-linecap="round" stroke-linejoin="round"/><path d="M574.356 289.945c-7.376 0-13.357-5.747-13.357-12.837s5.981-12.838 13.357-12.838c7.377 0 13.358 5.748 13.358 12.838 0 7.09-5.981 12.837-13.358 12.837z" fill="#E51A8E" stroke="#17005E" stroke-width="1.107" stroke-miterlimit="10" stroke-linecap="round" stroke-linejoin="round"/><path d="M570.888 273.561h7.011c2.73 0 5.018 2.128 5.018 4.823v1.064c0 .709-.59 1.277-1.328 1.277h-2.583c-.738 0-1.329-.568-1.329-1.277v-1.064h-6.789v1.064c0 .709-.59 1.277-1.328 1.277h-2.583c-.738 0-1.328-.568-1.328-1.277v-1.064c0-2.624 2.213-4.823 5.018-4.823h.221z" fill="#FAD1E8" stroke="#17005E" stroke-width="1.107" stroke-miterlimit="10" stroke-linecap="round" stroke-linejoin="round"/><path d="M581.147 270.511l-13.653 13.121z" fill="#FAD1E8"/><path d="M581.662 271.079L568.01 284.2c-.738.709-1.771-.354-1.107-1.064l13.652-13.121c.738-.709 1.845.355 1.107 1.064z" fill="#17005E"/><path d="M574.356 220.296c-7.376 0-13.357-5.748-13.357-12.838 0-7.09 5.981-12.837 13.357-12.837 7.377 0 13.358 5.747 13.358 12.837s-5.981 12.838-13.358 12.838z" fill="#8F17E6" stroke="#17005E" stroke-width="1.107" stroke-miterlimit="10" stroke-linecap="round" stroke-linejoin="round"/><path d="M574.209 210.863h5.239c.517 0 .886-.355.886-.851v-5.036c0-.496-.369-.851-.886-.851h-5.239c-.517 0-.886.355-.886.851v5.036c0 .425.443.851.886.851zm-4.944-.284l2.804-2.695a.542.542 0 000-.78l-2.804-2.695c-.369-.355-.96-.071-.96.425v5.39c-.074.426.591.71.96.355z" fill="#FAD1E8" stroke="#17005E" stroke-width="1.107" stroke-miterlimit="10" stroke-linecap="round" stroke-linejoin="round"/><path d="M250.538 232.07c3.247 3.12 5.092 7.021 5.535 10.993.148 1.348 1.328 2.412 2.804 2.412l10.922-.142c1.402 0 2.583-.993 2.731-2.341a18.442 18.442 0 015.534-10.922c7.601-7.306 7.601-19.15 0-26.456-7.601-7.305-19.925-7.305-27.526 0-7.601 7.377-7.601 19.15 0 26.456z" fill="#F48914" stroke="#17005E" stroke-width="1.107" stroke-miterlimit="10" stroke-linecap="round" stroke-linejoin="round"/><path d="M258.73 249.73h11.143c1.181 0 2.14-.922 2.14-2.057 0-1.134-.959-2.056-2.14-2.056H258.73c-1.181 0-2.14.922-2.14 2.056 0 1.135.959 2.057 2.14 2.057z" fill="#8F17E6" stroke="#17005E" stroke-width="1.107" stroke-miterlimit="10" stroke-linecap="round" stroke-linejoin="round"/><path d="M258.73 253.773h11.143c1.181 0 2.14-.922 2.14-2.057 0-1.135-.959-2.057-2.14-2.057H258.73c-1.181 0-2.14.922-2.14 2.057 0 1.135.959 2.057 2.14 2.057z" fill="#8F17E6" stroke="#17005E" stroke-width="1.107" stroke-miterlimit="10" stroke-linecap="round" stroke-linejoin="round"/><path d="M260.944 257.816h6.715c1.181 0 2.14-.922 2.14-2.057 0-1.135-.959-2.057-2.14-2.057h-6.715c-1.181 0-2.14.922-2.14 2.057 0 1.135.959 2.057 2.14 2.057z" fill="#8F17E6" stroke="#17005E" stroke-width="1.107" stroke-miterlimit="10" stroke-linecap="round" stroke-linejoin="round"/><path d="M266.995 244.553c-.517-4.043-.886-8.157-.886-12.2 0-3.12-.59-7.518.812-10.426.738-1.56 2.731-2.837 4.428-1.702 1.771 1.135 1.55 3.83.885 5.532-1.033 2.554-3.394 3.972-6.125 4.327-2.287.283-5.608.567-7.305-1.277-1.255-1.418-1.772-4.114-1.107-5.887.664-1.631 2.361-1.773 3.689-.709 2.362 1.986 1.919 6.029 1.919 8.653-.074 4.681-.738 9.362-1.919 13.901-.147.639-1.18.355-.959-.283 1.328-5.249 1.993-10.639 1.845-16.03 0-1.134 0-2.411-.369-3.546-.221-1.631-1.328-1.915-3.321-.709 0 .638.074 1.206.148 1.844.811 3.475 4.87 3.546 7.896 2.908 2.657-.497 6.494-3.759 4.87-6.88-2.73-.638-4.132 0-4.058 1.986-.074.567-.074 1.064-.148 1.631-.074 1.277-.147 2.483-.147 3.759a102.22 102.22 0 00.885 15.037c.074.709-.959.638-1.033.071zm34.02-39.222c-3.542 1.773-7.011 3.546-10.553 5.319-.59.284-1.107-.567-.516-.851 3.542-1.773 7.01-3.546 10.552-5.32.517-.354 1.034.497.517.852zm-17.637-22.98c-1.033 2.695-2.14 5.39-3.174 8.085-.221.568-1.254.355-.959-.284 1.033-2.695 2.14-5.39 3.173-8.085.222-.568 1.181-.284.96.284zm-21.106 5.319v-13.689c0-.638 1.033-.638 1.033 0v13.689c0 .638-1.033.638-1.033 0zm-17.047 6.596c-.959-1.489-1.919-3.05-2.878-4.539-.369-.568.517-1.064.886-.497.959 1.49 1.918 3.05 2.878 4.54.369.567-.517 1.064-.886.496zm-10.11 17.732c-1.919-.355-3.764-.639-5.682-.993-.665-.142-.369-1.064.295-.993 1.918.354 3.763.638 5.682.993.664.141.369 1.064-.295.993zm4.28 22.625c-1.623 1.206-3.247 2.341-4.797 3.546-.516.355-1.033-.496-.516-.851 1.623-1.206 3.247-2.34 4.797-3.546.516-.426 1.033.496.516.851zm50.182-.78c2.878 1.702 5.83 3.475 8.708 5.177.59.355.073 1.206-.517.852-2.878-1.703-5.83-3.476-8.708-5.178-.59-.284-.074-1.206.517-.851zm-38.005 37.945c-4.871 8.795-4.723 18.583.368 27.307 3.026 5.248 7.601 10.568 13.136 13.476.591.283.074 1.134-.516.851-6.052-3.192-10.996-9.079-14.095-14.895-4.723-8.795-4.576-18.511.221-27.306.295-.497 1.254 0 .886.567z" fill="#17005E"/><path d="M106.534 616.34l-9.15-8.795a4.455 4.455 0 010-6.454l1.033-.993c1.845-1.773 4.87-1.773 6.715 0l9.151 8.795a4.455 4.455 0 010 6.454l-1.033.993c-1.845 1.773-4.871 1.773-6.716 0z" fill="#E9D1FA"/><path d="M346.769 95.892l-9.151-8.795a4.455 4.455 0 010-6.454l1.033-.993c1.845-1.773 4.871-1.773 6.716 0l9.15 8.795a4.455 4.455 0 010 6.454l-1.033.993c-1.845 1.773-4.87 1.773-6.715 0z" fill="#FAD1E8"/><path d="M125.384 150.605l14.316-13.759c1.845-1.774 4.871-1.774 6.716 0l1.254 1.205a4.456 4.456 0 010 6.455l-14.316 13.759c-1.845 1.773-4.871 1.773-6.716 0l-1.254-1.206a4.455 4.455 0 010-6.454z" fill="#E9D1FA"/><path d="M365.292 253.702l-15.645-15.036a4.456 4.456 0 010-6.455l1.254-1.205c1.845-1.773 4.871-1.773 6.716 0l15.645 15.036a4.456 4.456 0 010 6.454l-1.255 1.206c-1.845 1.773-4.871 1.773-6.715 0z" fill="#FDFAFF"/><path d="M213.439 628.274l14.317-13.76c1.844-1.773 4.87-1.773 6.715 0l1.255 1.206a4.456 4.456 0 010 6.454l-14.317 13.76c-1.845 1.773-4.87 1.773-6.715 0l-1.255-1.206c-1.919-1.773-1.919-4.61 0-6.454z" fill="#FAD1E8"/><path d="M624.225 661.671c-5.095 0-9.225-3.969-9.225-8.865 0-4.897 4.13-8.866 9.225-8.866 5.094 0 9.224 3.969 9.224 8.866 0 4.896-4.13 8.865-9.224 8.865zM90.97 227.724c-4.402 0-7.97-3.429-7.97-7.66 0-4.23 3.568-7.66 7.97-7.66 4.402 0 7.97 3.43 7.97 7.66 0 4.231-3.568 7.66-7.97 7.66z" fill="#FDE7D0"/><path d="M441.671 546.768c-4.402 0-7.97-3.43-7.97-7.66 0-4.231 3.568-7.66 7.97-7.66 4.401 0 7.97 3.429 7.97 7.66 0 4.23-3.569 7.66-7.97 7.66z" fill="#FDFAFF"/><path d="M710.068 265.263c-4.402 0-7.97-3.43-7.97-7.66 0-4.231 3.568-7.66 7.97-7.66 4.402 0 7.97 3.429 7.97 7.66 0 4.23-3.568 7.66-7.97 7.66zM570.372 100.715l-7.011-6.738c-.369-.355-.886-.568-1.328-.568-.517 0-.96.213-1.329.568l-5.682 5.461-5.682-5.461h-.074l-.222-.213c-.073-.07-.147-.07-.221-.142l-.074-.07c-.074 0-.147-.072-.221-.072h-.96c-.073 0-.147.071-.221.071-.074 0-.074.071-.148.071-.073 0-.147.071-.221.071-.074.071-.221.142-.295.213l-5.682 5.461-5.683-5.461a1.924 1.924 0 00-2.656 0 1.75 1.75 0 000 2.553l7.01 6.738c.369.355.886.568 1.329.568.516 0 .959-.213 1.328-.568l5.682-5.461 5.683 5.461.073.071.222.213c.074.071.147.071.221.142l.074.071c.074 0 .148.071.221.071h.96c.073 0 .147-.071.221-.071.074 0 .074-.071.148-.071.073 0 .147-.071.221-.071.074-.071.221-.142.295-.213l5.683-5.461 5.682 5.461a1.925 1.925 0 002.657 0 1.833 1.833 0 000-2.624z" fill="#FDE7D0"/><path d="M570.372 90.289l-7.011-6.738c-.369-.355-.886-.568-1.328-.568-.517 0-.96.213-1.329.568l-5.682 5.46-5.682-5.46h-.074l-.222-.213c-.073-.071-.147-.071-.221-.142l-.074-.07c-.074 0-.147-.072-.221-.072h-.96c-.073 0-.147.071-.221.071-.074 0-.074.071-.148.071-.073 0-.147.07-.221.07-.074.072-.221.143-.295.214l-5.682 5.461-5.683-5.461a1.924 1.924 0 00-2.656 0 1.749 1.749 0 000 2.553l7.01 6.738c.369.355.886.567 1.329.567.516 0 .959-.212 1.328-.567l5.682-5.461 5.683 5.461.073.07.222.214c.074.07.147.07.221.141l.074.072c.074 0 .148.07.221.07h.96c.073 0 .147-.07.221-.07.074 0 .074-.072.148-.072.073 0 .147-.07.221-.07.074-.071.221-.142.295-.213l5.683-5.461 5.682 5.46c.738.71 1.919.71 2.657 0 .737-.78.737-1.914 0-2.623zm130.102 354.629h6.421c.369 0 .664-.142.885-.354.222-.213.369-.497.369-.851v-4.965h5.387c.074 0 .074 0 .148-.071h.074c.074 0 .074-.071.147-.071h.074c.074-.071.148-.071.148-.142l.147-.142s0-.071.074-.071c0-.071.074-.071.074-.142v-.071c0-.07 0-.07.074-.141v-5.178h5.165c.665 0 1.255-.496 1.255-1.206 0-.638-.517-1.205-1.255-1.205h-6.42c-.369 0-.664.141-.885.354a1.152 1.152 0 00-.369.851v4.965h-5.461c-.074 0-.074 0-.148.071h-.074c-.073 0-.073.071-.147.071h-.074c-.074.071-.148.071-.148.142l-.147.142s0 .071-.074.071c0 .07-.074.07-.074.141v.071c0 .071 0 .071-.074.142v5.178h-5.165c-.665 0-1.255.496-1.255 1.206.074.638.664 1.205 1.328 1.205z" fill="#FDE7D0"/><path d="M705.419 449.67h6.42c.369 0 .664-.141.886-.354.221-.213.369-.497.369-.851V443.5h5.387c.074 0 .074 0 .147-.071h.074c.074 0 .074-.071.148-.071h.073c.074-.071.148-.071.148-.142l.148-.142s0-.071.073-.071c0-.071.074-.071.074-.141v-.071c0-.071 0-.071.074-.142v-5.178h5.166c.664 0 1.254-.496 1.254-1.206 0-.638-.516-1.205-1.254-1.205h-6.42a1.25 1.25 0 00-.886.354 1.155 1.155 0 00-.369.851v4.965h-5.461c-.074 0-.074 0-.148.071h-.073c-.074 0-.074.071-.148.071h-.074c-.073.071-.147.071-.147.142l-.148.142s0 .071-.074.071c0 .071-.073.071-.073.142v.07c0 .071 0 .071-.074.142v5.178h-5.166c-.664 0-1.255.496-1.255 1.206.148.709.665 1.205 1.329 1.205z" fill="#FDE7D0"/><path d="M288.174 335.054h6.421c.369 0 .664-.142.885-.355.222-.212.369-.496.369-.851v-4.964h5.387c.074 0 .074 0 .148-.071h.074c.074 0 .074-.071.147-.071h.074c.074-.071.148-.071.148-.142l.147-.142s0-.071.074-.071c0-.071.074-.071.074-.142v-.071c0-.071 0-.071.074-.142v-5.177h5.165c.665 0 1.255-.497 1.255-1.206 0-.638-.517-1.206-1.255-1.206h-6.42c-.369 0-.664.142-.885.355a1.15 1.15 0 00-.369.851v4.965h-5.461c-.074 0-.074 0-.148.071h-.074c-.073 0-.073.071-.147.071h-.074c-.074.071-.148.071-.148.142l-.147.141s0 .071-.074.071c0 .071-.074.071-.074.142v.071c0 .071 0 .071-.074.142v5.178h-5.165c-.665 0-1.255.496-1.255 1.205.148.639.664 1.206 1.328 1.206z" fill="#FDFAFF"/><path d="M293.193 339.806h6.42c.369 0 .664-.142.886-.354.221-.213.369-.497.369-.852v-4.964h5.387c.073 0 .073 0 .147-.071h.074c.074 0 .074-.071.148-.071h.073c.074-.071.148-.071.148-.142l.148-.142s0-.071.073-.071c0-.071.074-.071.074-.142v-.071c0-.071 0-.071.074-.141v-5.178h5.166c.664 0 1.254-.497 1.254-1.206 0-.638-.516-1.206-1.254-1.206h-6.421c-.369 0-.664.142-.885.355a1.155 1.155 0 00-.369.851v4.965h-5.461c-.074 0-.074 0-.148.071h-.073c-.074 0-.074.071-.148.071h-.074c-.074.071-.147.071-.147.142l-.148.142s0 .07-.074.07c0 .071-.074.071-.074.142v.071c0 .071 0 .071-.073.142v5.178h-5.166c-.664 0-1.255.496-1.255 1.205.074.71.665 1.206 1.329 1.206z" fill="#FDFAFF"/><path d="M51.328 378.869h6.42c.37 0 .665-.142.886-.354.221-.213.37-.497.37-.852v-4.964h5.386c.074 0 .074 0 .148-.071h.074c.073 0 .074-.071.147-.071h.074c.074-.071.148-.071.148-.142l.147-.142s0-.071.074-.071c0-.071.074-.071.074-.142v-.071c0-.071 0-.071.074-.141v-5.178h5.165c.665 0 1.255-.497 1.255-1.206 0-.638-.517-1.206-1.255-1.206h-6.42c-.369 0-.664.142-.886.355a1.154 1.154 0 00-.369.851v4.965h-5.46c-.074 0-.074 0-.148.071h-.074c-.074 0-.074.071-.147.071h-.074c-.074.071-.148.071-.148.142l-.147.142s0 .07-.074.07c0 .071-.074.071-.074.142v.071c0 .071 0 .071-.074.142v5.178h-5.166c-.664 0-1.254.496-1.254 1.205.074.71.664 1.206 1.328 1.206z" fill="#E9D1FA"/><path d="M56.346 383.692h6.42c.37 0 .665-.142.886-.355a1.15 1.15 0 00.37-.851v-4.964h5.386c.073 0 .073 0 .147-.071h.074c.074 0 .074-.071.147-.071h.074c.074-.071.148-.071.148-.142l.147-.142s0-.071.074-.071c0-.071.074-.071.074-.142v-.071c0-.071 0-.071.074-.142v-5.177h5.166c.664 0 1.254-.497 1.254-1.206 0-.638-.516-1.206-1.254-1.206h-6.42c-.37 0-.665.142-.886.355a1.152 1.152 0 00-.37.851v4.965h-5.46c-.074 0-.074 0-.148.071h-.074c-.073 0-.073.071-.147.071h-.074c-.074.071-.148.071-.148.142l-.147.141s0 .071-.074.071c0 .071-.074.071-.074.142v.071c0 .071 0 .071-.074.142v5.178h-5.165c-.664 0-1.255.496-1.255 1.205.074.639.59 1.206 1.328 1.206zm616.233-20.693c-.369-.355-.59-.78-.59-1.277v-7.731h-8.044c-1.033 0-1.918-.78-1.918-1.844v-9.504c0-.993.811-1.844 1.918-1.844 1.033 0 1.919.78 1.919 1.844v7.731h8.044c1.033 0 1.919.78 1.919 1.844v7.731h8.043c1.033 0 1.919.78 1.919 1.844 0 .993-.812 1.844-1.919 1.844h-9.888c-.591-.071-1.034-.284-1.403-.638z" fill="#E9D1FA"/><path d="M679.811 356.048c-.369-.354-.59-.78-.59-1.276v-7.731h-8.044c-1.033 0-1.918-.781-1.918-1.844v-9.505c0-.993.811-1.844 1.918-1.844 1.033 0 1.919.781 1.919 1.844v7.731h8.044c1.033 0 1.918.781 1.918 1.844v7.731h8.044c1.033 0 1.919.781 1.919 1.844 0 .993-.812 1.845-1.919 1.845h-9.888c-.591-.071-1.107-.284-1.403-.639z" fill="#E9D1FA"/><path d="M336.88 412.789c-.369-.355-.59-.78-.59-1.277v-7.731h-8.044c-1.033 0-1.919-.851-1.919-1.844v-9.504c0-.993.812-1.844 1.919-1.844 1.033 0 1.919.78 1.919 1.844v7.731h8.043c1.034 0 1.919.78 1.919 1.844v7.731h8.044c1.033 0 1.919.78 1.919 1.844 0 .993-.812 1.844-1.919 1.844h-9.889c-.516-.142-1.033-.284-1.402-.638z" fill="#FDFAFF"/><path d="M344.112 405.838c-.369-.354-.59-.78-.59-1.277v-7.73h-8.044c-1.033 0-1.919-.781-1.919-1.845v-9.504c0-.993.812-1.844 1.919-1.844 1.033 0 1.919.781 1.919 1.844v7.731h8.043c1.034 0 1.919.851 1.919 1.844v7.731h8.044c1.033 0 1.919.78 1.919 1.844 0 .993-.812 1.844-1.919 1.844h-9.889c-.59-.07-1.033-.283-1.402-.638z" fill="#FDFAFF"/><path d="M234.922 74.005c.59 0 1.181.213 1.623.638l6.937 6.667 6.937-6.667c.886-.85 2.362-.85 3.321 0l8.634 8.299c.886.85.886 2.27 0 3.191-.886.852-2.361.852-3.321 0l-6.937-6.667-6.936 6.667c-.886.852-2.362.852-3.321 0l-6.937-6.667-6.937 6.667c-.886.852-2.361.852-3.321 0-.885-.85-.885-2.27 0-3.191l8.561-8.299c.442-.425 1.033-.638 1.697-.638z" fill="#E9D1FA"/><path d="M234.922 85.992c.59 0 1.181.212 1.623.638l6.937 6.667 6.937-6.667c.886-.851 2.362-.851 3.321 0l8.634 8.298c.886.851.886 2.27 0 3.192-.886.85-2.361.85-3.321 0l-6.937-6.667-6.936 6.667c-.886.85-2.362.85-3.321 0l-6.937-6.667-6.937 6.667c-.886.85-2.361.85-3.321 0-.885-.851-.885-2.27 0-3.192l8.561-8.227c.442-.426 1.033-.71 1.697-.71z" fill="#E9D1FA"/><path d="M97.583 306.126c-1.427 0-2.583-1.111-2.583-2.482 0-1.371 1.156-2.482 2.583-2.482 1.426 0 2.583 1.111 2.583 2.482 0 1.371-1.157 2.482-2.583 2.482zm8.043 0c-1.426 0-2.582-1.111-2.582-2.482 0-1.371 1.156-2.482 2.582-2.482 1.427 0 2.583 1.111 2.583 2.482 0 1.371-1.156 2.482-2.583 2.482zm7.971 0c-1.427 0-2.583-1.111-2.583-2.482 0-1.371 1.156-2.482 2.583-2.482 1.426 0 2.582 1.111 2.582 2.482 0 1.371-1.156 2.482-2.582 2.482zm-16.014-14.752c-1.427 0-2.583-1.112-2.583-2.483s1.156-2.482 2.583-2.482c1.426 0 2.583 1.111 2.583 2.482 0 1.371-1.157 2.483-2.583 2.483zm8.043 0c-1.426 0-2.582-1.112-2.582-2.483s1.156-2.482 2.582-2.482c1.427 0 2.583 1.111 2.583 2.482 0 1.371-1.156 2.483-2.583 2.483zm7.97 0c-1.427 0-2.583-1.112-2.583-2.483s1.156-2.482 2.583-2.482c1.426 0 2.583 1.111 2.583 2.482 0 1.371-1.157 2.483-2.583 2.483zm-16.013 7.376c-1.427 0-2.583-1.111-2.583-2.482 0-1.371 1.156-2.483 2.583-2.483 1.426 0 2.583 1.112 2.583 2.483s-1.157 2.482-2.583 2.482zm8.043 0c-1.426 0-2.582-1.111-2.582-2.482 0-1.371 1.156-2.483 2.582-2.483 1.427 0 2.583 1.112 2.583 2.483s-1.156 2.482-2.583 2.482zm7.971 0c-1.427 0-2.583-1.111-2.583-2.482 0-1.371 1.156-2.483 2.583-2.483 1.426 0 2.582 1.112 2.582 2.483s-1.156 2.482-2.582 2.482z" fill="#FAD1E8"/><path d="M469.271 413.285c-1.427 0-2.583-1.111-2.583-2.482 0-1.371 1.156-2.483 2.583-2.483 1.426 0 2.583 1.112 2.583 2.483s-1.157 2.482-2.583 2.482zm8.043 0c-1.426 0-2.582-1.111-2.582-2.482 0-1.371 1.156-2.483 2.582-2.483 1.427 0 2.583 1.112 2.583 2.483s-1.156 2.482-2.583 2.482zm7.971 0c-1.427 0-2.583-1.111-2.583-2.482 0-1.371 1.156-2.483 2.583-2.483 1.426 0 2.582 1.112 2.582 2.483s-1.156 2.482-2.582 2.482zm-16.014-14.823c-1.427 0-2.583-1.112-2.583-2.483s1.156-2.482 2.583-2.482c1.426 0 2.583 1.111 2.583 2.482 0 1.371-1.157 2.483-2.583 2.483zm8.043 0c-1.426 0-2.582-1.112-2.582-2.483s1.156-2.482 2.582-2.482c1.427 0 2.583 1.111 2.583 2.482 0 1.371-1.156 2.483-2.583 2.483zm7.97 0c-1.427 0-2.583-1.112-2.583-2.483s1.156-2.482 2.583-2.482c1.426 0 2.582 1.111 2.582 2.482 0 1.371-1.156 2.483-2.582 2.483zm-16.013 7.447c-1.427 0-2.583-1.111-2.583-2.482 0-1.371 1.156-2.483 2.583-2.483 1.426 0 2.583 1.112 2.583 2.483s-1.157 2.482-2.583 2.482zm8.043 0c-1.426 0-2.582-1.111-2.582-2.482 0-1.371 1.156-2.483 2.582-2.483 1.427 0 2.583 1.112 2.583 2.483s-1.156 2.482-2.583 2.482zm7.971 0c-1.427 0-2.583-1.111-2.583-2.482 0-1.371 1.156-2.483 2.583-2.483 1.426 0 2.582 1.112 2.582 2.483s-1.156 2.482-2.582 2.482z" fill="#FDFAFF"/><path d="M497.583 690.639c-1.427 0-2.583-1.111-2.583-2.482 0-1.371 1.156-2.483 2.583-2.483 1.426 0 2.583 1.112 2.583 2.483s-1.157 2.482-2.583 2.482zm7.97 0c-1.427 0-2.583-1.111-2.583-2.482 0-1.371 1.156-2.483 2.583-2.483 1.426 0 2.583 1.112 2.583 2.483s-1.157 2.482-2.583 2.482zm8.044 0c-1.427 0-2.583-1.111-2.583-2.482 0-1.371 1.156-2.483 2.583-2.483 1.426 0 2.583 1.112 2.583 2.483s-1.157 2.482-2.583 2.482zm-16.014-14.824c-1.427 0-2.583-1.111-2.583-2.482 0-1.371 1.156-2.482 2.583-2.482 1.426 0 2.583 1.111 2.583 2.482 0 1.371-1.157 2.482-2.583 2.482zm7.97 0c-1.427 0-2.583-1.111-2.583-2.482 0-1.371 1.156-2.482 2.583-2.482 1.426 0 2.583 1.111 2.583 2.482 0 1.371-1.157 2.482-2.583 2.482zm8.044 0c-1.427 0-2.583-1.111-2.583-2.482 0-1.371 1.156-2.482 2.583-2.482 1.426 0 2.583 1.111 2.583 2.482 0 1.371-1.157 2.482-2.583 2.482zm-16.014 7.377c-1.427 0-2.583-1.112-2.583-2.483s1.156-2.482 2.583-2.482c1.426 0 2.583 1.111 2.583 2.482 0 1.371-1.157 2.483-2.583 2.483zm7.97 0c-1.427 0-2.583-1.112-2.583-2.483s1.156-2.482 2.583-2.482c1.426 0 2.583 1.111 2.583 2.482 0 1.371-1.157 2.483-2.583 2.483zm8.044 0c-1.427 0-2.583-1.112-2.583-2.483s1.156-2.482 2.583-2.482c1.426 0 2.583 1.111 2.583 2.482 0 1.371-1.157 2.483-2.583 2.483zm120.756-513.324c-2.364 0-4.28-1.842-4.28-4.114s1.916-4.114 4.28-4.114c2.364 0 4.28 1.842 4.28 4.114s-1.916 4.114-4.28 4.114zm12.324 0c-2.364 0-4.28-1.842-4.28-4.114s1.916-4.114 4.28-4.114c2.364 0 4.28 1.842 4.28 4.114s-1.916 4.114-4.28 4.114zm-12.324 12.128c-2.364 0-4.28-1.842-4.28-4.114s1.916-4.114 4.28-4.114c2.364 0 4.28 1.842 4.28 4.114s-1.916 4.114-4.28 4.114zm12.324 0c-2.364 0-4.28-1.842-4.28-4.114s1.916-4.114 4.28-4.114c2.364 0 4.28 1.842 4.28 4.114s-1.916 4.114-4.28 4.114z" fill="#FAD1E8"/><path d="M288.538 707.801c-2.608 0-4.723-2.032-4.723-4.539 0-2.507 2.115-4.539 4.723-4.539 2.608 0 4.723 2.032 4.723 4.539 0 2.507-2.115 4.539-4.723 4.539zm9.593 9.221c-2.608 0-4.723-2.033-4.723-4.54s2.115-4.539 4.723-4.539c2.609 0 4.723 2.032 4.723 4.539 0 2.507-2.114 4.54-4.723 4.54zm-19.408.141c-2.608 0-4.723-2.032-4.723-4.539 0-2.507 2.115-4.539 4.723-4.539 2.608 0 4.723 2.032 4.723 4.539 0 2.507-2.115 4.539-4.723 4.539zm9.594 9.292c-2.609 0-4.723-2.033-4.723-4.54s2.114-4.539 4.723-4.539c2.608 0 4.722 2.032 4.722 4.539 0 2.507-2.114 4.54-4.722 4.54z" fill="#E9D1FA"/><path d="M400.64 615.353s-11.66-3.475-23.984-5.674c-12.324-2.269-18.596-1.631-18.596-1.631l23.467 30.782s10.036-1.206 18.375.567 21.844 4.965 21.844 4.965l-21.106-29.009z" fill="#F48914" stroke="#17005E" stroke-width="1.107" stroke-miterlimit="10" stroke-linecap="round" stroke-linejoin="round"/><path d="M381.527 638.83s18.892-6.596 24.353-6.809c5.534-.284 11.807 1.986 11.807 1.986l-19.851-29.931s-8.93-4.61-15.571-3.546c-6.716 1.064-18.302 7.092-18.302 7.092l17.564 31.208z" fill="#FEF1E3" stroke="#17005E" stroke-width="1.107" stroke-miterlimit="10" stroke-linecap="round" stroke-linejoin="round"/><path d="M416.949 627.056s-5.904-1.631-15.128.78c-9.299 2.483-20.294 10.994-20.294 10.994l-17.564-31.279s11.881-8.369 21.623-7.801c9.741.567 14.833.425 14.833.425l16.53 26.881z" fill="#FEF1E3" stroke="#17005E" stroke-width="1.107" stroke-miterlimit="10" stroke-linecap="round" stroke-linejoin="round"/><path d="M374.811 613.864l6.716 24.966-17.564-31.279-2.287-19.079 13.135 25.392z" fill="#FEF1E3" stroke="#17005E" stroke-width="1.107" stroke-miterlimit="10" stroke-linecap="round" stroke-linejoin="round"/><path d="M341.824 580.458s6.642 5.461 12.62 12.554c3.616 4.255 13.652 18.086 23.836 37.945 3.911 7.589 3.247 7.873 3.247 7.873s-4.502-11.49-16.678-20.072c-12.176-8.582-16.899-10.285-16.899-10.285l-6.126-28.015z" fill="#F48914" stroke="#17005E" stroke-width="1.107" stroke-miterlimit="10" stroke-linecap="round" stroke-linejoin="round"/><path d="M395.991 606.275c-7.085.071-13.948 1.56-20.442 4.326-.59.284-1.107-.567-.516-.851 6.641-2.908 13.652-4.397 20.958-4.468.664 0 .664.993 0 .993zm1.992 3.475c-6.715.284-13.135 2.057-18.965 5.249-.591.283-1.107-.568-.517-.851a44.418 44.418 0 0119.482-5.391c.665 0 .665.993 0 .993zm3.395 4.185c-7.232.851-14.095 3.05-20.442 6.596-.59.354-1.107-.568-.516-.851a55.744 55.744 0 0120.958-6.738c.664-.142.664.851 0 .993zm3.837 3.972c-8.043 1.064-16.235 2.624-22.803 7.447-.516.354-1.033-.497-.516-.851 6.641-4.894 14.907-6.525 23.098-7.589.664 0 .885.922.221.993zm1.993 5.319c-8.413.851-16.53 3.334-23.836 7.447-.591.284-1.107-.567-.517-.851 7.527-4.184 15.719-6.667 24.353-7.589.664-.071.664.922 0 .993zm-6.494-17.519c-.295.071-.664.142-.959.284-.665.142-.886-.78-.296-.993.296-.071.664-.142.96-.284.664-.141.959.852.295.993zm.147 3.263c-.295 0-.59.071-.885.071-.295 0-.517-.284-.517-.497 0-.283.222-.496.517-.496.295 0 .59-.071.885-.071.296 0 .517.284.517.496 0 .355-.221.497-.517.497zm4.133 3.759c-.369.213-.812.426-1.181.638-.59.284-1.106-.567-.516-.851.369-.213.812-.425 1.181-.638.59-.355 1.107.496.516.851zm3.173 4.539c-.295.071-.664.213-.959.284-.664.213-.886-.78-.295-.922.295-.071.664-.213.959-.284a.485.485 0 01.295.922zm2.14 5.674c-.369.071-.811.071-1.18.142-.296 0-.517-.283-.517-.496 0-.284.221-.497.517-.497.369-.071.811-.071 1.18-.142.296 0 .517.284.517.497 0 .284-.221.496-.517.496zm-18.375-20.143c-1.476.213-2.952.355-4.354.568-.664.071-.664-.922 0-.993 1.476-.213 2.952-.355 4.354-.568.664-.07.664.923 0 .993zm-14.169 1.915a6.85 6.85 0 00-3.099 1.419c-.517.354-1.033-.497-.517-.851a9.667 9.667 0 013.395-1.49c.59-.212.885.78.221.922z" fill="#17005E"/><path d="M647.931 262.355s-.221 11.703.96 23.689c1.181 11.987 3.542 17.661 3.542 17.661l24.353-30.286s-3.985-8.936-4.502-17.093c-.59-8.227-1.18-21.561-1.18-21.561l-23.173 27.59z" fill="#E51A8E" stroke="#17005E" stroke-width="1.107" stroke-miterlimit="10" stroke-linecap="round" stroke-linejoin="round"/><path d="M676.786 273.419s-11.808-15.603-13.579-20.639c-1.771-5.036-1.328-11.49-1.328-11.49l-24.427 26.668s-2.14 9.504.738 15.391c2.878 5.887 12.177 14.965 12.177 14.965l26.419-24.895z" fill="#FEF1E3" stroke="#17005E" stroke-width="1.107" stroke-miterlimit="10" stroke-linecap="round" stroke-linejoin="round"/><path d="M655.09 244.056s0 5.887 5.018 13.76c5.018 7.872 16.678 15.674 16.678 15.674l-26.345 24.966s-11.66-8.653-13.8-17.802c-2.14-9.15-3.69-13.831-3.69-13.831l22.139-22.767z" fill="#FEF1E3" stroke="#17005E" stroke-width="1.107" stroke-miterlimit="10" stroke-linecap="round" stroke-linejoin="round"/><path d="M646.16 256.042l30.626 17.377-24.353 30.286-29.666-15.675 23.393-31.988z" fill="#E51A8E" stroke="#17005E" stroke-width="1.107" stroke-miterlimit="10" stroke-linecap="round" stroke-linejoin="round"/><path d="M650.514 267.178l14.464 7.022-7.379 9.149-14.169-6.525 7.084-9.646z" fill="#8F17E6" stroke="#17005E" stroke-width="1.107" stroke-miterlimit="10" stroke-linecap="round" stroke-linejoin="round"/><path d="M652.654 252.638c1.329 3.546 3.247 6.667 5.83 9.433.443.497-.295 1.206-.738.709-2.73-2.907-4.723-6.17-6.125-9.858-.147-.639.812-.922 1.033-.284zm-2.951 2.412c.59.993 1.18 1.985 1.771 2.908.369.567-.591 1.063-.886.496-.59-.993-1.181-1.986-1.771-2.908-.369-.567.517-1.064.886-.496z" fill="#17005E"/><path d="M206.925 275.689s-11.291-4.043-23.541-6.667c-12.25-2.624-18.818-2.057-18.818-2.057l17.711 35.179s10.553-1.276 18.818.781c8.265 2.056 21.475 5.745 21.475 5.745l-15.645-32.981z" fill="#2FE055" stroke="#17005E" stroke-width="1.107" stroke-miterlimit="10" stroke-linecap="round" stroke-linejoin="round"/><path d="M182.351 302.215s20.81-7.305 26.566-7.518c5.756-.213 11.808 2.341 11.808 2.341l-14.243-34.116s-8.265-5.319-15.35-4.184c-7.084 1.134-20.367 7.872-20.367 7.872l11.586 35.605z" fill="#FEF1E3" stroke="#17005E" stroke-width="1.107" stroke-miterlimit="10" stroke-linecap="round" stroke-linejoin="round"/><path d="M207.294 290.654s-5.756-1.915-15.793.781c-10.11 2.695-9.15 10.709-9.15 10.709l-11.586-35.604s7.453-5.178 12.176-6.738c10.184-3.334 14.833-3.618 14.833-3.618l9.52 34.47z" fill="#FEF1E3" stroke="#17005E" stroke-width="1.107" stroke-miterlimit="10" stroke-linecap="round" stroke-linejoin="round"/><path d="M180.58 273.845l1.771 28.37-11.66-35.604 1.697-21.704 8.192 28.938z" fill="#FEF1E3" stroke="#17005E" stroke-width="1.107" stroke-miterlimit="10" stroke-linecap="round" stroke-linejoin="round"/><path d="M153.644 235.687s5.682 6.241 10.405 14.327c2.804 4.823 10.258 20.639 16.678 43.194 2.435 8.653 1.697 8.936 1.697 8.936s-2.804-12.553-10.331-25.391c-6.42-10.852-10.922-13.618-10.922-13.618l-7.527-27.448z" fill="#2FE055" stroke="#17005E" stroke-width="1.107" stroke-miterlimit="10" stroke-linecap="round" stroke-linejoin="round"/><path d="M200.431 284.271c-6.347.355-13.062.922-17.859 5.461-.443.426-1.181-.283-.738-.709 4.944-4.752 11.955-5.39 18.597-5.745.664-.071.664.922 0 .993zm-1.033-4.256c-6.052-.141-11.734 1.561-16.605 4.965-.516.355-1.033-.496-.516-.851 5.018-3.475 10.922-5.248 17.121-5.106.664.07.664 1.063 0 .992zm-2.51-5.248c-5.46-.426-10.183 1.986-14.833 4.468-.59.284-1.107-.567-.516-.851 4.723-2.553 9.741-5.107 15.349-4.61.665.071.665 1.064 0 .993zm-.885-4.752c-5.092.284-9.815 1.702-14.169 4.256-.59.354-1.107-.497-.517-.852a32.39 32.39 0 0114.686-4.397c.664-.071.664.922 0 .993zm-1.55-4.043c-5.018-.284-9.741 1.064-13.947 3.83-.517.355-1.033-.496-.517-.851 4.28-2.837 9.225-4.185 14.464-3.972.664 0 .664.993 0 .993zm-1.033-4.61c-5.24 0-10.036 1.489-14.316 4.397-.517.355-1.034-.496-.517-.851 4.354-2.979 9.446-4.539 14.833-4.539.664 0 .664.993 0 .993zm20.663 29.718c-1.992-.638-3.985-.78-6.051-.497-.664.071-.96-.851-.295-.922 2.213-.283 4.427-.141 6.567.497.665.142.443 1.135-.221.922zm-9.372.284c-5.978.851-11.512 3.262-17.121 5.39-.59.213-.885-.709-.295-.993 5.609-2.199 11.143-4.61 17.121-5.39.664 0 .959.922.295.993zm7.749-4.823c-1.845-.497-3.764-.71-5.683-.71-.664 0-.664-.993 0-.993 1.993 0 3.985.213 5.904.71.738.212.443 1.135-.221.993zm-1.55-5.249c-2.288-.142-4.576-.284-6.863-.496-.664-.071-.664-1.064 0-.993 2.287.142 4.575.283 6.863.496.664 0 .664.993 0 .993zm-2.435-4.894c-1.772-.142-3.469-.212-5.24-.354-.664-.071-.664-1.064 0-.993 1.771.142 3.468.212 5.24.354.664 0 .664.993 0 .993zm-1.919-5.39c-1.55-.213-3.1-.284-4.723-.213-.664.071-.664-.922 0-.993 1.697-.142 3.321 0 5.018.213.664.142.369 1.135-.295.993zm-1.993-5.532c-1.402-.284-2.878-.639-4.28-.922-.664-.142-.369-1.064.295-.993 1.402.283 2.878.638 4.28.922.591.213.296 1.135-.295.993z" fill="#17005E"/></svg>