<svg width="31" height="28" fill="none" xmlns="http://www.w3.org/2000/svg"><g clip-path="url(#clip0)"><path fill-rule="evenodd" clip-rule="evenodd" d="M15.45 28c8.263 0 14.96-6.268 14.96-14S23.714 0 15.45 0C7.187 0 .49 6.268.49 14s6.697 14 14.96 14z" fill="#fff"/><path d="M18.804 15.625l.383-2.516h-2.433v-1.64c0-.711.328-1.367 1.421-1.367h1.122v-2.16s-1.012-.192-1.97-.192c-1.995 0-3.308 1.23-3.308 3.418v1.941h-2.242v2.516h2.242v6.125h2.735v-6.125h2.05z" fill="#F89535"/></g><defs><clipPath id="clip0"><path fill="#fff" transform="translate(.49)" d="M0 0h29.922v28H0z"/></clipPath></defs></svg>