<svg width="30" height="28" fill="none" xmlns="http://www.w3.org/2000/svg"><g clip-path="url(#clip0)"><path fill-rule="evenodd" clip-rule="evenodd" d="M15.04 28C23.301 28 30 21.732 30 14S23.302 0 15.04 0C6.775 0 .077 6.268.077 14S6.776 28 15.04 28z" fill="#fff"/><path d="M14.752 11.605a3.145 3.145 0 00-3.144 3.145 3.128 3.128 0 003.144 3.145 3.145 3.145 0 003.145-3.145 3.163 3.163 0 00-3.145-3.145zm0 5.196a2.048 2.048 0 01-2.05-2.051c0-1.121.902-2.023 2.05-2.023a2.02 2.02 0 012.024 2.023c0 1.148-.903 2.05-2.024 2.05zm3.992-5.305a.735.735 0 00-.738-.738.735.735 0 00-.738.738c0 .41.328.738.738.738s.738-.328.738-.738zm2.079.738c-.055-.984-.274-1.859-.985-2.57-.71-.71-1.586-.93-2.57-.984-1.012-.055-4.047-.055-5.059 0-.984.054-1.832.273-2.57.984-.711.711-.93 1.586-.984 2.57-.055 1.012-.055 4.047 0 5.059.054.984.273 1.832.984 2.57.738.711 1.586.93 2.57.985 1.012.054 4.047.054 5.059 0 .984-.055 1.86-.274 2.57-.985.711-.738.93-1.586.985-2.57.054-1.012.054-4.047 0-5.059zM19.51 18.36c-.191.547-.629.957-1.148 1.176-.82.328-2.735.246-3.61.246-.902 0-2.816.082-3.61-.246a2.074 2.074 0 01-1.175-1.176c-.328-.793-.246-2.707-.246-3.609 0-.875-.082-2.79.246-3.61a2.11 2.11 0 011.176-1.148c.793-.328 2.707-.246 3.61-.246.874 0 2.788-.082 3.609.246.52.192.93.63 1.148 1.149.328.82.246 2.734.246 3.609 0 .902.082 2.816-.246 3.61z" fill="#F89535"/></g><defs><clipPath id="clip0"><path fill="#fff" transform="translate(.078)" d="M0 0h29.922v28H0z"/></clipPath></defs></svg>