<svg width="31" height="28" fill="none" xmlns="http://www.w3.org/2000/svg"><g clip-path="url(#clip0)"><path fill-rule="evenodd" clip-rule="evenodd" d="M15.745 28c8.262 0 14.96-6.268 14.96-14S24.007 0 15.745 0C7.482 0 .784 6.268.784 14s6.698 14 14.96 14z" fill="#fff"/><path d="M12.067 20v-8.176H9.524V20h2.543zm-1.285-9.27c.82 0 1.476-.683 1.476-1.503 0-.793-.656-1.45-1.476-1.45a1.46 1.46 0 00-1.45 1.45c0 .82.657 1.503 1.45 1.503zM21.555 20h.028v-4.484c0-2.188-.492-3.883-3.063-3.883-1.23 0-2.05.683-2.406 1.312h-.027v-1.12h-2.434V20h2.543v-4.047c0-1.066.191-2.078 1.504-2.078s1.34 1.203 1.34 2.16V20h2.515z" fill="#F89535"/></g><defs><clipPath id="clip0"><path fill="#fff" transform="translate(.784)" d="M0 0h29.922v28H0z"/></clipPath></defs></svg>