<svg width="28" height="29" fill="none" xmlns="http://www.w3.org/2000/svg"><path d="M13.864.601C6.35.601 0 6.95 0 14.466S6.349 28.33 13.864 28.33c7.516 0 13.865-6.348 13.865-13.864C27.729 6.95 21.38.6 13.864.6zm0 6.933c2.395 0 4.16 1.763 4.16 4.159s-1.765 4.16-4.16 4.16c-2.393 0-4.159-1.764-4.159-4.16s1.766-4.16 4.16-4.16zM6.785 21.082c1.244-1.83 3.318-3.05 5.693-3.05h2.773c2.376 0 4.449 1.22 5.693 3.05a9.662 9.662 0 01-7.08 3.089 9.662 9.662 0 01-7.079-3.09z" fill="url(#paint0_linear)"/><defs><linearGradient id="paint0_linear" x1="13.864" y1=".601" x2="13.864" y2="28.33" gradientUnits="userSpaceOnUse"><stop stop-color="#FDC131"/><stop offset="1" stop-color="#F58235"/></linearGradient></defs></svg>