<svg width="30" height="28" fill="none" xmlns="http://www.w3.org/2000/svg"><g clip-path="url(#clip0)" fill-rule="evenodd" clip-rule="evenodd" fill="#fff"><path d="M28.28 13.125C28.28 5.875 22.356 0 15.045 0c-1.738 0-3.46.34-5.065 1a13.241 13.241 0 00-4.293 2.844 13.117 13.117 0 00-2.869 4.258 13.029 13.029 0 00-1.007 5.023 13.07 13.07 0 003.877 9.28 13.292 13.292 0 009.359 3.845c3.915 0 13.235-.091 13.235-.091l-.004-13.036v.002zm-13.33 9.676a9.758 9.758 0 01-6.87-2.824 9.595 9.595 0 01-2.844-6.813A9.595 9.595 0 018.083 6.35a9.758 9.758 0 016.871-2.821 9.758 9.758 0 016.87 2.823 9.595 9.595 0 012.845 6.814 9.595 9.595 0 01-2.847 6.813 9.758 9.758 0 01-6.871 2.82zm11.448 1.626h-1.764v-1.75h1.764v1.75z"/><path d="M13.842 5.327c-3.74 0-6.774 2.828-6.774 6.314 0 .437.046.868.136 1.277.328 1.47.933 1.21.933-.276 0-3.497 3.034-6.316 6.777-6.316 1.597 0 1.072-1-1.072-1z"/></g><defs><clipPath id="clip0"><path fill="#fff" d="M0 0h30v28H0z"/></clipPath></defs></svg>