<svg width="28" height="27" fill="none" xmlns="http://www.w3.org/2000/svg"><path fill-rule="evenodd" clip-rule="evenodd" d="M27.28 13.125C27.28 5.875 21.356 0 14.045 0c-1.738 0-3.46.34-5.065 1a13.242 13.242 0 00-4.293 2.844 13.117 13.117 0 00-2.869 4.258 13.028 13.028 0 00-1.007 5.023 13.07 13.07 0 003.877 9.28 13.292 13.292 0 009.359 3.845c3.916 0 13.235-.091 13.235-.091l-.004-13.036v.002zm-13.33 9.676a9.758 9.758 0 01-6.87-2.824 9.595 9.595 0 01-2.844-6.813A9.595 9.595 0 017.083 6.35a9.758 9.758 0 016.871-2.821 9.758 9.758 0 016.87 2.823 9.595 9.595 0 012.845 6.814 9.595 9.595 0 01-2.847 6.813 9.758 9.758 0 01-6.871 2.82zm11.448 1.626h-1.764v-1.75h1.764v1.75z" fill="#000"/></svg>