<svg width="15" height="15" viewBox="0 0 15 15" fill="none" xmlns="http://www.w3.org/2000/svg">
<path d="M0 13.875L1.85938 11.9609L3.69141 13.793L2.73438 14.75L0 13.875ZM3.41797 7.3125L4.53906 6.35547L9.26953 11.0859L8.3125 12.2344C8.02083 12.5443 7.67448 12.6354 7.27344 12.5078L6.09766 12.1523L4.70312 13.5469L2.07812 10.9219L3.47266 9.52734L3.11719 8.35156C3.08073 8.26042 3.0625 8.16016 3.0625 8.05078C3.0625 7.75911 3.18099 7.51302 3.41797 7.3125ZM14.4375 2.91016C14.7109 3.20182 14.8568 3.54818 14.875 3.94922C14.8932 4.33203 14.7656 4.66927 14.4922 4.96094L9.84375 10.4023L5.22266 5.78125L10.6641 1.13281C10.9557 0.859375 11.293 0.731771 11.6758 0.75C12.0768 0.768229 12.4232 0.914062 12.7148 1.1875L14.4375 2.91016Z" fill="#F37335"/>
</svg>
