<svg width="31" height="28" viewBox="0 0 31 28" fill="none" xmlns="http://www.w3.org/2000/svg">
<g clip-path="url(#clip0)">
<path fill-rule="evenodd" clip-rule="evenodd" d="M15.4501 28C23.7127 28 30.4109 21.732 30.4109 14C30.4109 6.26801 23.7127 0 15.4501 0C7.18744 0 0.489258 6.26801 0.489258 14C0.489258 21.732 7.18744 28 15.4501 28Z" fill="white"/>
<path d="M18.8044 15.625L19.1873 13.1094H16.7537V11.4688C16.7537 10.7578 17.0818 10.1016 18.1755 10.1016H19.2966V7.94141C19.2966 7.94141 18.2849 7.75 17.3279 7.75C15.3318 7.75 14.0193 8.98047 14.0193 11.168V13.1094H11.7771V15.625H14.0193V21.75H16.7537V15.625H18.8044Z" fill="#F89535"/>
</g>
<defs>
<clipPath id="clip0">
<rect width="29.9216" height="28" fill="white" transform="translate(0.489258)"/>
</clipPath>
</defs>
</svg>
