<svg width="30" height="28" viewBox="0 0 30 28" fill="none" xmlns="http://www.w3.org/2000/svg">
<g clip-path="url(#clip0)">
<path fill-rule="evenodd" clip-rule="evenodd" d="M15.0391 28C23.3018 28 30 21.732 30 14C30 6.26801 23.3018 0 15.0391 0C6.77637 0 0.078125 6.26801 0.078125 14C0.078125 21.732 6.77637 28 15.0391 28Z" fill="white"/>
<path d="M14.7523 11.6055C13.0023 11.6055 11.6077 13.0273 11.6077 14.75C11.6077 16.5 13.0023 17.8945 14.7523 17.8945C16.4749 17.8945 17.8968 16.5 17.8968 14.75C17.8968 13.0273 16.4749 11.6055 14.7523 11.6055ZM14.7523 16.8008C13.6312 16.8008 12.7015 15.8984 12.7015 14.75C12.7015 13.6289 13.6038 12.7266 14.7523 12.7266C15.8734 12.7266 16.7757 13.6289 16.7757 14.75C16.7757 15.8984 15.8734 16.8008 14.7523 16.8008ZM18.7444 11.4961C18.7444 11.0859 18.4163 10.7578 18.0062 10.7578C17.596 10.7578 17.2679 11.0859 17.2679 11.4961C17.2679 11.9062 17.596 12.2344 18.0062 12.2344C18.4163 12.2344 18.7444 11.9062 18.7444 11.4961ZM20.8226 12.2344C20.7679 11.25 20.5491 10.375 19.8382 9.66406C19.1273 8.95312 18.2523 8.73438 17.2679 8.67969C16.2562 8.625 13.221 8.625 12.2093 8.67969C11.2249 8.73438 10.3773 8.95312 9.63898 9.66406C8.92804 10.375 8.70929 11.25 8.6546 12.2344C8.59991 13.2461 8.59991 16.2812 8.6546 17.293C8.70929 18.2773 8.92804 19.125 9.63898 19.8633C10.3773 20.5742 11.2249 20.793 12.2093 20.8477C13.221 20.9023 16.2562 20.9023 17.2679 20.8477C18.2523 20.793 19.1273 20.5742 19.8382 19.8633C20.5491 19.125 20.7679 18.2773 20.8226 17.293C20.8773 16.2812 20.8773 13.2461 20.8226 12.2344ZM19.5101 18.3594C19.3187 18.9062 18.8812 19.3164 18.3616 19.5352C17.5413 19.8633 15.6273 19.7812 14.7523 19.7812C13.8499 19.7812 11.9359 19.8633 11.1429 19.5352C10.596 19.3164 10.1859 18.9062 9.9671 18.3594C9.63898 17.5664 9.72101 15.6523 9.72101 14.75C9.72101 13.875 9.63898 11.9609 9.9671 11.1406C10.1859 10.6211 10.596 10.2109 11.1429 9.99219C11.9359 9.66406 13.8499 9.74609 14.7523 9.74609C15.6273 9.74609 17.5413 9.66406 18.3616 9.99219C18.8812 10.1836 19.2913 10.6211 19.5101 11.1406C19.8382 11.9609 19.7562 13.875 19.7562 14.75C19.7562 15.6523 19.8382 17.5664 19.5101 18.3594Z" fill="#F89535"/>
</g>
<defs>
<clipPath id="clip0">
<rect width="29.9219" height="28" fill="white" transform="translate(0.078125)"/>
</clipPath>
</defs>
</svg>
