<svg width="31" height="28" viewBox="0 0 31 28" fill="none" xmlns="http://www.w3.org/2000/svg">
<g clip-path="url(#clip0)">
<path fill-rule="evenodd" clip-rule="evenodd" d="M15.7446 28C24.0072 28 30.7054 21.732 30.7054 14C30.7054 6.26801 24.0072 0 15.7446 0C7.4819 0 0.783691 6.26801 0.783691 14C0.783691 21.732 7.4819 28 15.7446 28Z" fill="white"/>
<path d="M12.0671 20V11.8242H9.52417V20H12.0671ZM10.782 10.7305C11.6023 10.7305 12.2585 10.0469 12.2585 9.22656C12.2585 8.43359 11.6023 7.77734 10.782 7.77734C9.98901 7.77734 9.33276 8.43359 9.33276 9.22656C9.33276 10.0469 9.98901 10.7305 10.782 10.7305ZM21.5554 20H21.5828V15.5156C21.5828 13.3281 21.0906 11.6328 18.5203 11.6328C17.2898 11.6328 16.4695 12.3164 16.114 12.9453H16.0867V11.8242H13.6531V20H16.196V15.9531C16.196 14.8867 16.3875 13.875 17.7 13.875C19.0125 13.875 19.0398 15.0781 19.0398 16.0352V20H21.5554Z" fill="#F89535"/>
</g>
<defs>
<clipPath id="clip0">
<rect width="29.9218" height="28" fill="white" transform="translate(0.783691)"/>
</clipPath>
</defs>
</svg>
