<svg width="28" height="29" viewBox="0 0 28 29" fill="none" xmlns="http://www.w3.org/2000/svg">
<path d="M13.8644 0.601318C6.34853 0.601318 0 6.94985 0 14.4658C0 21.9817 6.34853 28.3302 13.8644 28.3302C21.3804 28.3302 27.7289 21.9817 27.7289 14.4658C27.7289 6.94985 21.3804 0.601318 13.8644 0.601318ZM13.8644 7.53354C16.2588 7.53354 18.0238 9.2971 18.0238 11.6929C18.0238 14.0887 16.2588 15.8522 13.8644 15.8522C11.4714 15.8522 9.70511 14.0887 9.70511 11.6929C9.70511 9.2971 11.4714 7.53354 13.8644 7.53354ZM6.78526 21.0819C8.0289 19.2518 10.103 18.0317 12.478 18.0317H15.2509C17.6273 18.0317 19.7 19.2518 20.9436 21.0819C19.1718 22.9785 16.6581 24.1709 13.8644 24.1709C11.0708 24.1709 8.55714 22.9785 6.78526 21.0819Z" fill="url(#paint0_linear)"/>
<defs>
<linearGradient id="paint0_linear" x1="13.8644" y1="0.601318" x2="13.8644" y2="28.3302" gradientUnits="userSpaceOnUse">
<stop stop-color="#FDC131"/>
<stop offset="1" stop-color="#F58235"/>
</linearGradient>
</defs>
</svg>
