<svg width="146" height="55" viewBox="0 0 146 55" fill="none" xmlns="http://www.w3.org/2000/svg">
<path d="M124.451 1.04346L123.761 18.1213C123.556 23.2082 119.265 27.1697 114.178 26.9695L96.8699 26.2885L97.5599 9.21071C97.7655 4.1238 102.056 0.162308 107.143 0.362464L124.451 1.04346Z" fill="#412C60"/>
<path d="M114.109 10.5105L113.818 17.7301C113.612 22.817 109.321 26.7785 104.234 26.5784L96.8711 26.2887L97.1628 19.069C97.3683 13.9821 101.659 10.0206 106.746 10.2208L114.109 10.5105Z" fill="#FE8B00"/>
<path d="M0.684 18.7108H1.62C1.992 18.7108 2.286 18.6448 2.502 18.5128C2.718 18.3688 2.892 18.1408 3.024 17.8288C3.516 16.6768 3.9 15.2548 4.176 13.5628C4.464 11.8708 4.608 10.0048 4.608 7.96482C4.608 7.25682 4.296 6.90282 3.672 6.90282H2.664V6.32682H12.276V6.90282H11.016C10.86 6.90282 10.746 6.93282 10.674 6.99282C10.614 7.05282 10.584 7.16682 10.584 7.33482V17.8468C10.584 18.1708 10.656 18.3988 10.8 18.5308C10.956 18.6508 11.202 18.7108 11.538 18.7108H12.744V22.7428H12.168C12.156 22.6708 12.126 22.4968 12.078 22.2208C12.03 21.9568 11.946 21.6448 11.826 21.2848C11.706 20.9368 11.544 20.6188 11.34 20.3308C10.764 19.5388 10.074 19.1428 9.27 19.1428H4.158C3.354 19.1428 2.664 19.5388 2.088 20.3308C1.884 20.6188 1.722 20.9368 1.602 21.2848C1.482 21.6448 1.398 21.9568 1.35 22.2208C1.302 22.4968 1.272 22.6708 1.26 22.7428H0.684V18.7108ZM7.488 18.5668C7.656 18.5668 7.77 18.5368 7.83 18.4768C7.89 18.4048 7.92 18.2908 7.92 18.1348V7.33482C7.92 7.16682 7.89 7.05282 7.83 6.99282C7.77 6.93282 7.656 6.90282 7.488 6.90282H6.714C6.246 6.90282 5.898 7.02882 5.67 7.28082C5.442 7.53282 5.328 7.96482 5.328 8.57682C5.328 10.0648 5.214 11.5948 4.986 13.1668C4.758 14.7388 4.53 15.9148 4.302 16.6948C4.122 17.3548 4.032 17.7628 4.032 17.9188C4.032 18.1468 4.086 18.3148 4.194 18.4228C4.314 18.5188 4.512 18.5668 4.788 18.5668H7.488ZM26.0502 19.3588C25.4022 19.3588 24.7962 19.1668 24.2322 18.7828C23.6682 18.3868 23.2182 17.8468 22.8822 17.1628C22.5462 16.4788 22.3782 15.7168 22.3782 14.8768C22.3782 14.0368 22.5462 13.2748 22.8822 12.5908C23.2182 11.9068 23.6682 11.3728 24.2322 10.9888C24.7962 10.5928 25.4022 10.3948 26.0502 10.3948C26.6982 10.3948 27.3042 10.5928 27.8682 10.9888C28.4322 11.3728 28.8822 11.9068 29.2182 12.5908C29.5542 13.2748 29.7222 14.0368 29.7222 14.8768C29.7222 15.7168 29.5542 16.4788 29.2182 17.1628C28.8822 17.8468 28.4322 18.3868 27.8682 18.7828C27.3042 19.1668 26.6982 19.3588 26.0502 19.3588ZM26.0502 18.9268C26.5662 18.9268 26.9202 18.6088 27.1122 17.9728C27.3162 17.3368 27.4182 16.3048 27.4182 14.8768C27.4182 13.4488 27.3162 12.4168 27.1122 11.7808C26.9202 11.1448 26.5662 10.8268 26.0502 10.8268C25.5342 10.8268 25.1742 11.1448 24.9702 11.7808C24.7782 12.4168 24.6822 13.4488 24.6822 14.8768C24.6822 16.3048 24.7782 17.3368 24.9702 17.9728C25.1742 18.6088 25.5342 18.9268 26.0502 18.9268ZM43.3825 19.3588C42.7345 19.3588 42.1285 19.1668 41.5645 18.7828C41.0005 18.3868 40.5505 17.8468 40.2145 17.1628C39.8785 16.4788 39.7105 15.7168 39.7105 14.8768C39.7105 13.6768 39.7345 12.7468 39.7825 12.0868C39.8305 11.4268 39.9505 10.8328 40.1425 10.3048C40.3465 9.77682 40.6585 9.27882 41.0785 8.81082C41.5105 8.34282 42.0505 7.98282 42.6985 7.73082C43.3585 7.47882 44.1625 7.23882 45.1105 7.01082C45.5545 6.90282 45.8605 6.79482 46.0285 6.68682C46.1965 6.56682 46.3045 6.39882 46.3525 6.18282H46.7845C46.7845 6.90282 46.6825 7.46082 46.4785 7.85682C46.2745 8.24082 46.0045 8.51082 45.6685 8.66682C45.3445 8.82282 44.9185 8.94882 44.3905 9.04482C43.6225 9.18882 43.0105 9.33282 42.5545 9.47682C42.0985 9.60882 41.6725 9.81882 41.2765 10.1068C40.9165 10.3708 40.6525 10.7368 40.4845 11.2048C40.3165 11.6608 40.2145 12.1528 40.1785 12.6808L40.2685 12.6988C40.9885 11.1628 42.0265 10.3948 43.3825 10.3948C44.0305 10.3948 44.6365 10.5928 45.2005 10.9888C45.7645 11.3728 46.2145 11.9068 46.5505 12.5908C46.8865 13.2748 47.0545 14.0368 47.0545 14.8768C47.0545 15.7168 46.8865 16.4788 46.5505 17.1628C46.2145 17.8468 45.7645 18.3868 45.2005 18.7828C44.6365 19.1668 44.0305 19.3588 43.3825 19.3588ZM43.3825 18.9268C43.8985 18.9268 44.2525 18.6088 44.4445 17.9728C44.6485 17.3368 44.7505 16.3048 44.7505 14.8768C44.7505 13.4488 44.6485 12.4168 44.4445 11.7808C44.2525 11.1448 43.8985 10.8268 43.3825 10.8268C42.8545 10.8268 42.4945 11.1448 42.3025 11.7808C42.1105 12.4048 42.0145 13.4368 42.0145 14.8768C42.0145 16.3168 42.1105 17.3548 42.3025 17.9908C42.4945 18.6148 42.8545 18.9268 43.3825 18.9268ZM56.6092 22.8148H57.6172C57.7252 22.8148 57.7972 22.7908 57.8332 22.7428C57.8812 22.7068 57.9052 22.6348 57.9052 22.5268V11.3308C57.9052 11.2228 57.8812 11.1508 57.8332 11.1148C57.7972 11.0668 57.7252 11.0428 57.6172 11.0428H56.6092V10.6108H59.9932V11.6548H60.1012C60.2572 11.3188 60.4792 11.0248 60.7672 10.7728C61.0672 10.5208 61.4092 10.3948 61.7932 10.3948C62.4172 10.3948 62.9752 10.6108 63.4672 11.0428C63.9592 11.4628 64.3432 12.0208 64.6192 12.7168C64.8952 13.4008 65.0332 14.1208 65.0332 14.8768C65.0332 15.6448 64.9012 16.3708 64.6372 17.0548C64.3732 17.7388 64.0012 18.2968 63.5212 18.7288C63.0412 19.1488 62.4892 19.3588 61.8652 19.3588C61.4812 19.3588 61.1392 19.2448 60.8392 19.0168C60.5392 18.7888 60.2932 18.4768 60.1012 18.0808L59.9932 18.1168V22.5268C59.9932 22.6348 60.0112 22.7068 60.0472 22.7428C60.0952 22.7908 60.1732 22.8148 60.2812 22.8148H61.2892V23.2468H56.6092V22.8148ZM61.5412 18.7828C62.3332 18.7828 62.7292 17.4808 62.7292 14.8768C62.7292 12.2728 62.3332 10.9708 61.5412 10.9708C61.2652 10.9708 61.0072 11.1448 60.7672 11.4928C60.5392 11.8288 60.3532 12.2908 60.2092 12.8788C60.0652 13.4668 59.9932 14.1148 59.9932 14.8228C59.9932 15.6868 60.0772 16.4188 60.2452 17.0188C60.4132 17.6188 60.6172 18.0628 60.8572 18.3508C61.0972 18.6388 61.3252 18.7828 61.5412 18.7828ZM78.6222 19.3588C77.9742 19.3588 77.3682 19.1668 76.8042 18.7828C76.2402 18.3868 75.7902 17.8468 75.4542 17.1628C75.1182 16.4788 74.9502 15.7168 74.9502 14.8768C74.9502 14.0368 75.1182 13.2748 75.4542 12.5908C75.7902 11.9068 76.2402 11.3728 76.8042 10.9888C77.3682 10.5928 77.9742 10.3948 78.6222 10.3948C79.2702 10.3948 79.8762 10.5928 80.4402 10.9888C81.0042 11.3728 81.4542 11.9068 81.7902 12.5908C82.1262 13.2748 82.2942 14.0368 82.2942 14.8768C82.2942 15.7168 82.1262 16.4788 81.7902 17.1628C81.4542 17.8468 81.0042 18.3868 80.4402 18.7828C79.8762 19.1668 79.2702 19.3588 78.6222 19.3588ZM78.6222 18.9268C79.1382 18.9268 79.4922 18.6088 79.6842 17.9728C79.8882 17.3368 79.9902 16.3048 79.9902 14.8768C79.9902 13.4488 79.8882 12.4168 79.6842 11.7808C79.4922 11.1448 79.1382 10.8268 78.6222 10.8268C78.1062 10.8268 77.7462 11.1448 77.5422 11.7808C77.3502 12.4168 77.2542 13.4488 77.2542 14.8768C77.2542 16.3048 77.3502 17.3368 77.5422 17.9728C77.7462 18.6088 78.1062 18.9268 78.6222 18.9268Z" fill="#FE8B00"/>
<path d="M61.0184 41.7584H61.9544C62.3264 41.7584 62.6204 41.6924 62.8364 41.5604C63.0524 41.4164 63.2264 41.1884 63.3584 40.8764C63.8504 39.7244 64.2344 38.3024 64.5104 36.6104C64.7984 34.9184 64.9424 33.0524 64.9424 31.0124C64.9424 30.3044 64.6304 29.9504 64.0064 29.9504H62.9984V29.3744H72.6104V29.9504H71.3504C71.1944 29.9504 71.0804 29.9804 71.0084 30.0404C70.9484 30.1004 70.9184 30.2144 70.9184 30.3824V40.8944C70.9184 41.2184 70.9904 41.4464 71.1344 41.5784C71.2904 41.6984 71.5364 41.7584 71.8724 41.7584H73.0784V45.7904H72.5024C72.4904 45.7184 72.4604 45.5444 72.4124 45.2684C72.3644 45.0044 72.2804 44.6924 72.1604 44.3324C72.0404 43.9844 71.8784 43.6664 71.6744 43.3784C71.0984 42.5864 70.4084 42.1904 69.6044 42.1904H64.4924C63.6884 42.1904 62.9984 42.5864 62.4224 43.3784C62.2184 43.6664 62.0564 43.9844 61.9364 44.3324C61.8164 44.6924 61.7324 45.0044 61.6844 45.2684C61.6364 45.5444 61.6064 45.7184 61.5944 45.7904H61.0184V41.7584ZM67.8224 41.6144C67.9904 41.6144 68.1044 41.5844 68.1644 41.5244C68.2244 41.4524 68.2544 41.3384 68.2544 41.1824V30.3824C68.2544 30.2144 68.2244 30.1004 68.1644 30.0404C68.1044 29.9804 67.9904 29.9504 67.8224 29.9504H67.0484C66.5804 29.9504 66.2324 30.0764 66.0044 30.3284C65.7764 30.5804 65.6624 31.0124 65.6624 31.6244C65.6624 33.1124 65.5484 34.6424 65.3204 36.2144C65.0924 37.7864 64.8644 38.9624 64.6364 39.7424C64.4564 40.4024 64.3664 40.8104 64.3664 40.9664C64.3664 41.1944 64.4204 41.3624 64.5284 41.4704C64.6484 41.5664 64.8464 41.6144 65.1224 41.6144H67.8224ZM84.9266 42.4064C84.1826 42.4064 83.5166 42.2084 82.9286 41.8124C82.3526 41.4044 81.9026 40.8584 81.5786 40.1744C81.2546 39.4904 81.0926 38.7404 81.0926 37.9244C81.0926 37.0844 81.2546 36.3224 81.5786 35.6384C81.9026 34.9544 82.3406 34.4204 82.8926 34.0364C83.4566 33.6404 84.0686 33.4424 84.7286 33.4424C85.4606 33.4424 86.0906 33.7064 86.6186 34.2344C87.1466 34.7504 87.4946 35.4344 87.6626 36.2864C87.7466 36.6704 87.7886 37.2704 87.7886 38.0864H83.3966C83.3966 38.6624 83.4086 39.1184 83.4326 39.4544C83.4566 39.7784 83.5106 40.0964 83.5946 40.4084C83.7026 40.8524 83.9066 41.2064 84.2066 41.4704C84.5186 41.7344 84.8786 41.8664 85.2866 41.8664C85.8746 41.8664 86.3486 41.6084 86.7086 41.0924C87.0686 40.5764 87.2846 39.9704 87.3566 39.2744H87.8246C87.7526 40.1024 87.4826 40.8344 87.0146 41.4704C86.5466 42.0944 85.8506 42.4064 84.9266 42.4064ZM85.7006 37.5824C85.7006 36.3224 85.6166 35.3924 85.4486 34.7924C85.2926 34.1804 84.9926 33.8744 84.5486 33.8744C84.1046 33.8744 83.7986 34.1804 83.6306 34.7924C83.4746 35.3924 83.3966 36.3224 83.3966 37.5824H85.7006ZM97.3048 41.7584H98.3128C98.4208 41.7584 98.4928 41.7404 98.5288 41.7044C98.5768 41.6564 98.6008 41.5784 98.6008 41.4704V34.3784C98.6008 34.2584 98.5768 34.1804 98.5288 34.1444C98.4928 34.1084 98.4208 34.0904 98.3128 34.0904C98.0488 34.0904 97.7908 34.2404 97.5388 34.5404C97.2988 34.8284 97.1008 35.1644 96.9448 35.5484C96.7768 35.9564 96.6508 36.3164 96.5668 36.6284C96.4948 36.9404 96.4528 37.1384 96.4408 37.2224H95.9368L96.0448 33.6584H103.245L103.353 37.2224H102.849C102.837 37.1384 102.789 36.9404 102.705 36.6284C102.633 36.3164 102.513 35.9564 102.345 35.5484C102.189 35.1644 101.985 34.8284 101.733 34.5404C101.493 34.2404 101.241 34.0904 100.977 34.0904C100.869 34.0904 100.791 34.1084 100.743 34.1444C100.707 34.1804 100.689 34.2584 100.689 34.3784V41.4704C100.689 41.5784 100.707 41.6564 100.743 41.7044C100.791 41.7404 100.869 41.7584 100.977 41.7584H101.985V42.1904H97.3048V41.7584ZM112.576 42.5144C111.952 42.5144 111.52 42.2984 111.28 41.8664C111.052 41.4344 110.938 40.8224 110.938 40.0304H111.406C111.406 40.5224 111.454 40.9364 111.55 41.2724C111.646 41.5964 111.802 41.7584 112.018 41.7584C112.282 41.7584 112.414 41.5964 112.414 41.2724V40.1744C112.414 39.4904 112.594 38.9864 112.954 38.6624C113.326 38.3384 113.83 38.1284 114.466 38.0324V37.9424C112.882 37.6784 112.09 36.9884 112.09 35.8724C112.09 35.2004 112.366 34.6664 112.918 34.2704C113.482 33.8624 114.244 33.6584 115.204 33.6584H119.362V34.0904H118.786C118.678 34.0904 118.6 34.1144 118.552 34.1624C118.516 34.1984 118.498 34.2704 118.498 34.3784V41.4704C118.498 41.5784 118.516 41.6564 118.552 41.7044C118.6 41.7404 118.678 41.7584 118.786 41.7584H119.47V42.1904H115.438V41.7584H116.122C116.23 41.7584 116.302 41.7404 116.338 41.7044C116.386 41.6564 116.41 41.5784 116.41 41.4704V38.0864H115.708C114.904 38.0864 114.502 38.5064 114.502 39.3464V40.7144C114.502 41.3024 114.328 41.7524 113.98 42.0644C113.632 42.3644 113.164 42.5144 112.576 42.5144ZM116.41 37.6544V34.3784C116.41 34.2704 116.386 34.1984 116.338 34.1624C116.302 34.1144 116.224 34.0904 116.104 34.0904H115.456C115.012 34.0904 114.7 34.2524 114.52 34.5764C114.34 34.8884 114.25 35.3204 114.25 35.8724C114.25 37.0604 114.652 37.6544 115.456 37.6544H116.41ZM129.157 35.9984H129.067V40.6064C129.067 40.9784 129.169 41.2664 129.373 41.4704C129.577 41.6624 129.859 41.7584 130.219 41.7584V42.1904H127.411V41.7584C127.771 41.7584 128.053 41.6624 128.257 41.4704C128.461 41.2664 128.563 40.9784 128.563 40.6064V34.3784C128.563 34.2704 128.539 34.1984 128.491 34.1624C128.455 34.1144 128.383 34.0904 128.275 34.0904H127.411V33.6584H130.381L132.667 39.3284L134.377 33.6584H137.581V34.0904H136.897C136.789 34.0904 136.711 34.1144 136.663 34.1624C136.627 34.1984 136.609 34.2704 136.609 34.3784V41.4704C136.609 41.5784 136.627 41.6564 136.663 41.7044C136.711 41.7404 136.789 41.7584 136.897 41.7584H137.581V42.1904H133.549V41.7584H134.233C134.341 41.7584 134.413 41.7404 134.449 41.7044C134.497 41.6564 134.521 41.5784 134.521 41.4704V34.9544L132.289 42.3524H131.713L129.157 35.9984Z" fill="#FE8B00"/>
</svg>
