<svg width="28" height="27" viewBox="0 0 28 27" fill="none" xmlns="http://www.w3.org/2000/svg">
<path fill-rule="evenodd" clip-rule="evenodd" d="M27.2794 13.125C27.2794 5.87475 21.3571 0 14.0459 0C12.3079 -1.53242e-08 10.5869 0.339501 8.98125 0.999115C7.37557 1.65873 5.91663 2.62554 4.68776 3.84433C3.4589 5.06312 2.48416 6.51002 1.81921 8.10241C1.15427 9.6948 0.812146 11.4015 0.812378 13.125C0.812378 16.606 2.20681 19.9444 4.68891 22.4058C7.171 24.8672 10.5375 26.25 14.0477 26.25C17.9636 26.25 27.283 26.159 27.283 26.159L27.2794 13.1233V13.125ZM13.9506 22.8008C11.3736 22.8003 8.90241 21.7847 7.08055 19.9773C5.25869 18.17 4.23544 15.719 4.23591 13.1635C4.23638 10.608 5.26052 8.15736 7.08304 6.35069C8.90557 4.54401 11.3772 3.52929 13.9541 3.52975C16.5311 3.53021 19.0023 4.54583 20.8242 6.35316C22.6461 8.16049 23.6693 10.6115 23.6688 13.167C23.6684 15.7225 22.6442 18.1731 20.8217 19.9798C18.9992 21.7865 16.5276 22.8012 13.9506 22.8008ZM25.3983 24.4265H23.6336V22.6765H25.3983V24.4265Z" fill="black"/>
</svg>
