<svg width="30" height="28" viewBox="0 0 30 28" fill="none" xmlns="http://www.w3.org/2000/svg">
<g clip-path="url(#clip0)">
<path fill-rule="evenodd" clip-rule="evenodd" d="M28.2794 13.125C28.2794 5.87475 22.357 0 15.0458 0C13.3078 -1.53242e-08 11.5869 0.339501 9.98119 0.999115C8.3755 1.65873 6.91657 2.62554 5.6877 3.84433C4.45883 5.06312 3.4841 6.51002 2.81915 8.10241C2.15421 9.6948 1.81209 11.4015 1.81232 13.125C1.81232 16.606 3.20675 19.9444 5.68884 22.4058C8.17094 24.8672 11.5374 26.25 15.0476 26.25C18.9635 26.25 28.2829 26.159 28.2829 26.159L28.2794 13.1233V13.125ZM14.9506 22.8008C12.3736 22.8003 9.90235 21.7847 8.08049 19.9773C6.25863 18.17 5.23538 15.719 5.23585 13.1635C5.23631 10.608 6.26046 8.15736 8.08298 6.35069C9.90551 4.54401 12.3771 3.52929 14.9541 3.52975C17.531 3.53021 20.0023 4.54583 21.8241 6.35316C23.646 8.16049 24.6693 10.6115 24.6688 13.167C24.6683 15.7225 23.6442 18.1731 21.8216 19.9798C19.9991 21.7865 17.5275 22.8012 14.9506 22.8008ZM26.3982 24.4265H24.6335V22.6765H26.3982V24.4265Z" fill="white"/>
<path fill-rule="evenodd" clip-rule="evenodd" d="M13.8423 5.3269C10.1029 5.3269 7.06763 8.1549 7.06763 11.6409C7.06763 12.0784 7.11351 12.5089 7.20351 12.9184C7.53174 14.3884 8.13704 14.1277 8.13704 12.6419C8.13704 9.1454 11.1706 6.32615 14.9135 6.32615C16.5106 6.32615 15.9865 5.3269 13.8423 5.3269Z" fill="white"/>
</g>
<defs>
<clipPath id="clip0">
<rect width="30" height="28" fill="white"/>
</clipPath>
</defs>
</svg>
